<svg width="145" height="39" viewBox="0 0 145 39" fill="none" xmlns="http://www.w3.org/2000/svg">
<path d="M6.86 37.12L6.74 37.06H5.54C5.5 37.06 5.42 37.06 5.3 37.06C5.22 37.06 5.12 37.04 5 37C4.88 36.92 4.7 36.86 4.46 36.82L3.08 37.06C2.8 36.94 2.44 36.82 2 36.7L0.8 36.94C0.48 36.86 0.26 36.78 0.14 36.7L0.0800001 36.52L0.5 28.78C0.86 28.1 1.04 27.68 1.04 27.52C1.04 27.44 1.04 27.36 1.04 27.28C1.04 27.2 1.02 27.1 0.98 26.98C0.9 26.7 0.88 26.5 0.92 26.38C0.92 26.18 0.98 25.94 1.1 25.66L1.28 25.18L0.92 23.92L1.1 23.38C1.14 23.3 1.18 23.18 1.22 23.02C1.26 22.86 1.3 22.66 1.34 22.42L1.82 21.7L1.22 21.28L1.34 20.8V20.74C1.34 20.58 1.26 20.42 1.1 20.26L1.16 20.02C1.24 19.98 1.34 19.94 1.46 19.9C1.58 19.82 1.72 19.72 1.88 19.6L2 19.54C1.56 19.18 1.34 18.94 1.34 18.82L1.58 18.4C1.58 18.36 1.46 18.28 1.22 18.16V17.44C1.22 17.36 1.22 17.28 1.22 17.2C1.26 17.12 1.3 17.02 1.34 16.9C1.42 16.78 1.56 16.72 1.76 16.72L1.88 16.6C1.52 15.28 1.34 14.52 1.34 14.32L1.46 13.96L1.58 13.54L1.64 12.64C1.68 12.6 1.72 12.56 1.76 12.52C1.84 12.44 1.94 12.36 2.06 12.28L1.58 11.74C1.54 11.54 1.54 11.36 1.58 11.2C1.46 10.6 1.4 10.16 1.4 9.88C1.4 9.76 1.44 9.66 1.52 9.58C1.56 9.58 1.62 9.62 1.7 9.7C1.74 9.54 1.76 9.4 1.76 9.28C1.8 9.16 1.82 9.08 1.82 9.04C1.78 8.84 1.76 8.72 1.76 8.68C1.76 8.6 1.74 8.6 1.7 8.68L1.94 7.06C1.98 6.98 2.02 6.9 2.06 6.82C2.1 6.74 2.14 6.66 2.18 6.58L2 6.1C1.84 5.82 1.76 5.66 1.76 5.62C1.76 5.58 1.86 5.32 2.06 4.84L2.6 4.54C2.48 4.42 2.3 4.36 2.06 4.36C2.06 4.24 2.04 4.12 2 4C2 3.88 2 3.76 2 3.64C2 2.96 2.02 2.48 2.06 2.2C2.1 1.88 2.14 1.78 2.18 1.9L2.06 1.6C2.02 1.52 2 1.42 2 1.3C2 0.899999 2.36 0.739998 3.08 0.819997L3.44 0.939999C3.64 1.06 3.76 1.12 3.8 1.12L4.04 0.999999C4.12 0.959999 4.22 0.939999 4.34 0.939999C4.46 1.06 4.58 1.16 4.7 1.24C5.18 1.44 5.5 1.54 5.66 1.54C5.74 1.54 5.82 1.44 5.9 1.24C6.06 1.2 6.2 1.18 6.32 1.18C6.44 1.14 6.58 1.14 6.74 1.18C6.82 1.18 7 1.36 7.28 1.72C7.52 2.12 7.66 2.32 7.7 2.32C7.7 2.32 7.92 2.16 8.36 1.84C8.72 1.52 8.92 1.38 8.96 1.42L9.38 1.48C9.42 1.48 9.5 1.42 9.62 1.3C9.78 1.22 9.88 1.18 9.92 1.18C10.08 1.18 10.18 1.3 10.22 1.54C10.26 1.78 10.46 1.92 10.82 1.96H11C11.08 1.8 11.12 1.68 11.12 1.6H11.36L13.1 1.96C13.3 1.96 13.42 2.04 13.46 2.2L13.64 2.62C14.2 2.3 14.44 2.14 14.36 2.14C14.48 2.22 14.68 2.36 14.96 2.56L15.68 2.86C15.84 2.98 15.92 3.12 15.92 3.28C15.92 3.4 15.9 3.52 15.86 3.64L15.74 3.94C15.74 4.18 16.06 4.28 16.7 4.24H17.48C17.48 4.28 17.48 4.36 17.48 4.48C17.52 4.56 17.56 4.66 17.6 4.78C17.68 4.82 17.74 4.88 17.78 4.96C17.86 5.04 17.94 5.12 18.02 5.2C18.38 5.68 18.56 5.98 18.56 6.1C18.56 6.22 18.52 6.32 18.44 6.4L18.5 6.52C18.54 6.6 18.56 6.68 18.56 6.76L18.14 7.36C18.14 7.68 18.46 7.92 19.1 8.08L19.04 8.2C19.12 8.44 19.16 8.7 19.16 8.98L19.34 9.22V9.64L19.46 9.88L19.4 11.5C19.24 11.66 19.1 11.86 18.98 12.1C18.98 12.14 19.02 12.26 19.1 12.46C19.3 12.74 19.36 13.1 19.28 13.54L18.92 14.68C18.92 14.76 18.92 14.88 18.92 15.04C18.92 15.2 18.9 15.38 18.86 15.58C18.78 15.9 18.64 16.36 18.44 16.96L18.08 17.32C18.16 17.72 18.14 17.98 18.02 18.1C17.9 18.26 17.84 18.36 17.84 18.4C17.8 18.64 17.82 18.88 17.9 19.12L17.24 19.84C17.24 19.92 17.22 20 17.18 20.08C17.1 20.08 16.94 20.12 16.7 20.2C16.62 20.28 16.54 20.54 16.46 20.98C16.42 21.14 16.26 21.28 15.98 21.4C15.82 21.44 15.7 21.5 15.62 21.58C15.58 21.62 15.54 21.66 15.5 21.7C15.46 21.78 15.34 22 15.14 22.36C15.1 22.4 14.5 22.66 13.34 23.14L12.56 23.2L11.54 23.5C11.46 23.46 11.3 23.4 11.06 23.32L10.7 23.38C10.58 23.42 10.48 23.44 10.4 23.44L9.62 23.2L8.72 23.02H8.36C8.04 23.02 7.72 23.18 7.4 23.5L7.46 24.76C7.42 24.84 7.3 24.98 7.1 25.18C7.18 25.46 7.22 25.72 7.22 25.96C7.22 26.16 7.22 26.34 7.22 26.5C7.22 26.78 7.2 26.96 7.16 27.04L7.28 28C7.12 28.2 7.04 28.34 7.04 28.42L7.22 29.86C6.98 30.02 6.86 30.26 6.86 30.58C6.86 30.9 6.9 31.08 6.98 31.12L7.1 31.18C6.98 33.82 6.8 35.52 6.56 36.28C6.64 36.44 6.74 36.6 6.86 36.76V37.12ZM3.92 3.04C4.04 2.92 4.08 2.84 4.04 2.8L3.68 2.74L3.62 2.92L3.92 3.04ZM3.38 3.58L3.5 3.46C3.5 3.26 3.44 3.02 3.32 2.74C3.16 2.9 3.08 3.06 3.08 3.22L3.14 3.58H3.38ZM8.84 3.4C8.96 3.44 9.08 3.38 9.2 3.22C9.12 3.14 9.02 3.12 8.9 3.16C8.86 3.2 8.84 3.28 8.84 3.4ZM13.46 5.02C13.5 4.94 13.48 4.86 13.4 4.78C13.32 4.7 13.24 4.7 13.16 4.78C13.16 4.94 13.26 5.02 13.46 5.02ZM8.18 6.46L8.24 6.34C8.2 6.22 8.12 6.16 8 6.16C7.92 6.32 7.86 6.42 7.82 6.46H8.18ZM7.46 17.62C7.46 17.62 7.58 17.58 7.82 17.5L8.06 17.38C8.14 17.42 8.3 17.44 8.54 17.44L9.14 17.38C9.38 17.38 9.52 17.44 9.56 17.56C9.8 17.48 9.96 17.44 10.04 17.44L10.52 17.56C10.6 17.56 10.72 17.5 10.88 17.38C11 17.26 11.08 17.2 11.12 17.2C11.12 17.2 11.18 17.24 11.3 17.32C11.38 17.32 11.54 17.2 11.78 16.96C12.02 16.64 12.2 16.46 12.32 16.42C12.48 15.58 12.54 15.14 12.5 15.1L12.62 14.08C12.74 13.84 12.86 13.54 12.98 13.18L12.92 12.4C12.88 12.12 12.84 11.9 12.8 11.74C12.8 11.54 12.8 11.38 12.8 11.26C13 11.14 13.18 10.96 13.34 10.72C13.34 10.56 13.22 10.4 12.98 10.24L12.5 9.88C12.54 9.76 12.56 9.62 12.56 9.46C12.56 9.06 12.38 8.8 12.02 8.68C12.06 8.68 12.08 8.66 12.08 8.62C12.08 8.5 11.92 8.28 11.6 7.96L11.06 7.36C10.98 7.36 10.92 7.34 10.88 7.3C10.76 7.42 10.7 7.54 10.7 7.66H10.16C10.04 7.62 9.88 7.6 9.68 7.6C8.72 7.6 8.24 7.78 8.24 8.14L8.48 8.62C8.48 8.7 8.34 8.86 8.06 9.1C8.3 9.5 8.42 9.8 8.42 10C8.38 10.4 8.16 10.62 7.76 10.66C7.84 10.9 7.94 11.08 8.06 11.2C8.1 11.36 8.12 11.58 8.12 11.86C8.12 12.1 8.12 12.38 8.12 12.7L8 12.88V13.48L8.06 13.72C8.1 13.84 8.12 13.98 8.12 14.14C8.12 14.22 8.06 14.24 7.94 14.2C8.14 14.4 8.1 14.6 7.82 14.8L8 15.16C7.68 15.4 7.52 15.58 7.52 15.7L7.64 15.94L7.82 16.36C7.46 16.76 7.28 17.06 7.28 17.26L7.22 17.5L7.46 17.62ZM2.42 8.56C2.54 8.56 2.6 8.44 2.6 8.2C2.52 8.2 2.44 8.24 2.36 8.32C2.32 8.36 2.34 8.44 2.42 8.56ZM16.1 9.46C16.14 9.42 16.16 9.36 16.16 9.28C16.16 9.16 16.08 9.1 15.92 9.1C15.88 9.22 15.94 9.34 16.1 9.46ZM4.22 10.36C4.34 10.28 4.4 10.16 4.4 10C4.32 9.96 4.24 9.98 4.16 10.06C4.12 10.1 4.14 10.2 4.22 10.36ZM17.48 10.6L17.6 10.54C17.64 10.54 17.68 10.52 17.72 10.48L17.6 10.3C17.56 10.34 17.54 10.38 17.54 10.42C17.54 10.46 17.52 10.52 17.48 10.6ZM16.46 11.86C16.5 11.82 16.6 11.76 16.76 11.68C16.72 11.64 16.62 11.64 16.46 11.68V11.86ZM18.2 13.84L18.32 13.66C18.28 13.62 18.26 13.5 18.26 13.3C18.14 13.06 17.94 12.94 17.66 12.94H17.54C17.38 12.94 17.22 13.02 17.06 13.18V13.3C17.34 13.34 17.72 13.52 18.2 13.84ZM2.9 18.1C2.94 18.02 2.92 17.94 2.84 17.86C2.8 17.78 2.72 17.8 2.6 17.92C2.6 18.04 2.7 18.1 2.9 18.1ZM7.52 18.76C7.64 18.8 7.74 18.78 7.82 18.7C7.86 18.66 7.84 18.56 7.76 18.4C7.68 18.4 7.6 18.52 7.52 18.76ZM15.32 18.76C15.44 18.8 15.56 18.74 15.68 18.58C15.64 18.54 15.58 18.52 15.5 18.52C15.38 18.52 15.32 18.6 15.32 18.76ZM9.92 19.42L9.8 19.24L9.74 19.3L9.8 19.42H9.92ZM10.88 20.26L10.94 19.96L10.82 19.84L10.52 19.78L10.34 19.96C10.38 20 10.4 20.06 10.4 20.14L10.88 20.26ZM5 22.06C5.08 22.06 5.14 22.04 5.18 22V21.7L4.82 21.52C4.94 21.48 4.94 21.28 4.82 20.92C4.86 20.84 4.88 20.68 4.88 20.44L4.04 20.68V20.98C4 21.06 4.12 21.26 4.4 21.58C4.72 21.9 4.92 22.06 5 22.06ZM11.3 22.12L11.48 21.88L11.18 21.82L11.06 22.06C11.1 22.1 11.18 22.12 11.3 22.12ZM12.08 22.06L12.26 21.82H11.84L12.08 22.06ZM8.96 22.48C9.12 22.52 9.24 22.5 9.32 22.42L9.2 22.3C9 22.38 8.92 22.44 8.96 22.48ZM4.76 27.16L4.58 26.98C4.5 26.98 4.44 27 4.4 27.04L4.76 27.16ZM4.76 28.12C4.8 28.04 4.78 27.96 4.7 27.88C4.66 27.84 4.56 27.86 4.4 27.94C4.4 28.06 4.52 28.12 4.76 28.12ZM6.2 28.18C6.24 28.14 6.26 28.04 6.26 27.88H6.02C6.06 27.92 6.12 28.02 6.2 28.18ZM2.3 32.02C2.34 31.98 2.38 31.94 2.42 31.9C2.5 31.86 2.56 31.82 2.6 31.78L2.24 31.6L2.12 31.72C2.2 31.88 2.26 31.98 2.3 32.02ZM1.1 31.96C1.18 32.04 1.26 32.04 1.34 31.96L1.28 31.78C1.24 31.78 1.18 31.84 1.1 31.96ZM4.46 35.44C4.5 35.36 4.48 35.28 4.4 35.2C4.36 35.16 4.26 35.18 4.1 35.26C4.1 35.38 4.22 35.44 4.46 35.44ZM27.1306 37.78C27.0506 37.78 27.0306 37.78 27.0706 37.78C27.0306 37.78 26.9506 37.74 26.8306 37.66L26.5306 37.54C26.4506 37.58 26.3506 37.6 26.2306 37.6C26.1506 37.6 26.0506 37.62 25.9306 37.66L25.0906 37.18C24.9706 36.9 24.8106 36.76 24.6106 36.76C24.5706 36.72 24.5306 36.72 24.4906 36.76C24.4506 36.8 24.3706 36.82 24.2506 36.82C24.2506 36.82 24.0506 36.66 23.6506 36.34L23.1706 36.16C23.0506 36.04 22.9106 35.9 22.7506 35.74C22.6306 35.58 22.4706 35.4 22.2706 35.2L21.7906 34.84V34.72C21.7906 34.56 21.6906 34.32 21.4906 34C21.2906 33.8 21.1306 33.64 21.0106 33.52C20.9306 33.36 20.8706 33.26 20.8306 33.22V32.5C21.0306 32.62 21.1506 32.6 21.1906 32.44C21.2706 32.32 21.1906 32.2 20.9506 32.08C20.7906 31.96 20.7106 31.86 20.7106 31.78V31.06C20.7106 30.94 20.7106 30.82 20.7106 30.7C20.7106 30.58 20.6906 30.46 20.6506 30.34C20.6106 30.14 20.5706 29.96 20.5306 29.8C20.5306 29.6 20.5506 29.42 20.5906 29.26L20.7106 28.66C20.6706 28.42 20.6506 28.18 20.6506 27.94C20.6506 27.66 20.6506 27.38 20.6506 27.1C20.6506 26.94 20.7106 26.74 20.8306 26.5L21.0106 26.02C20.9706 25.7 20.9306 25.36 20.8906 25C20.8506 24.6 20.8106 24.2 20.7706 23.8C20.7706 23.68 20.9306 23.3 21.2506 22.66C21.3306 22.62 21.4106 22.58 21.4906 22.54C21.5706 22.5 21.6506 22.44 21.7306 22.36C21.7306 22.32 21.5506 22.18 21.1906 21.94L21.0106 20.68C21.0106 20.48 21.0906 20.36 21.2506 20.32C21.3706 20.24 21.4106 20.1 21.3706 19.9L22.1506 19.36C22.1106 19.2 21.9706 19.1 21.7306 19.06C21.6906 19.06 21.5506 19.1 21.3106 19.18C21.1906 19.1 21.1306 19.02 21.1306 18.94C21.1306 18.7 21.2506 18.5 21.4906 18.34C21.7306 18.14 21.8506 18.02 21.8506 17.98L21.5506 16.96C21.5506 16.96 21.7106 16.68 22.0306 16.12C22.3106 16.08 22.4506 16 22.4506 15.88C22.4506 15.8 22.3906 15.7 22.2706 15.58C22.1106 15.46 22.0306 15.36 22.0306 15.28C22.0306 15.24 22.0706 15.18 22.1506 15.1C22.2706 14.86 22.3906 14.42 22.5106 13.78L22.8706 13.42L23.0506 12.82C23.2906 12.74 23.5706 12.62 23.8906 12.46L24.6706 11.5C25.0706 10.98 25.4106 10.74 25.6906 10.78L25.8706 10.84C25.8706 10.8 26.0306 10.74 26.3506 10.66C27.3106 10.34 27.8506 10.2 27.9706 10.24L28.2706 10.3C28.5106 10.14 28.6906 10 28.8106 9.88L29.1106 9.94C29.1906 9.94 29.2506 9.96 29.2906 10C29.3306 10.04 29.3706 10.06 29.4106 10.06L29.8906 10L30.4306 10.48C30.4306 10.48 30.5506 10.44 30.7906 10.36L31.0906 10.24C31.2506 10.32 31.4306 10.4 31.6306 10.48C31.8306 10.56 32.0306 10.64 32.2306 10.72C32.4306 10.64 32.7106 10.64 33.0706 10.72L33.0106 11.02V11.08C33.0106 11.32 33.2306 11.44 33.6706 11.44H34.1506C34.1506 11.44 34.4106 11.92 34.9306 12.88L35.2906 12.76C35.4506 12.76 35.5506 12.82 35.5906 12.94L36.2506 15.22C36.2106 15.3 36.1906 15.44 36.1906 15.64C36.1906 15.8 36.1906 15.98 36.1906 16.18L36.3706 16.6C36.4506 16.84 36.4906 16.96 36.4906 16.96L36.3706 17.14C36.3306 17.18 36.3106 17.24 36.3106 17.32V18.22C36.2706 18.26 36.2306 18.34 36.1906 18.46C36.1506 18.54 36.1106 18.66 36.0706 18.82C35.8306 18.86 35.7106 18.94 35.7106 19.06C35.7106 19.18 35.8906 19.4 36.2506 19.72C36.5706 20.04 36.7306 20.24 36.7306 20.32C36.7306 20.4 36.6306 20.44 36.4306 20.44L36.2506 21.28C36.2106 21.32 36.1506 21.44 36.0706 21.64C36.0706 21.88 36.1906 22.4 36.4306 23.2C36.2706 23.28 36.1506 23.38 36.0706 23.5C36.0706 23.5 36.0706 23.66 36.0706 23.98L36.1306 24.58C36.1306 24.62 36.1306 24.7 36.1306 24.82C36.1306 24.9 36.1106 25.02 36.0706 25.18L36.0106 25.78H35.7106C35.3906 25.78 35.1306 25.62 34.9306 25.3C34.7706 25.02 34.6306 24.88 34.5106 24.88C34.4706 24.88 34.3506 25 34.1506 25.24C33.9106 25.48 33.7506 25.6 33.6706 25.6L33.0106 25.54C32.8106 25.5 32.6506 25.5 32.5306 25.54C32.4106 25.54 32.3306 25.54 32.2906 25.54L31.0306 25C30.7506 25.24 30.4306 25.36 30.0706 25.36C29.6306 25.36 29.2506 25.22 28.9306 24.94C28.8506 25.02 28.8106 25.08 28.8106 25.12H27.9106C27.8706 25.12 27.8506 25.12 27.8506 25.12C27.8506 25.08 27.8306 25.06 27.7906 25.06H27.5506C27.1906 25.06 26.8906 25.28 26.6506 25.72V25.96C26.6106 26.04 26.5506 26.16 26.4706 26.32C26.4306 26.44 26.3706 26.58 26.2906 26.74C26.2906 26.78 26.3306 26.84 26.4106 26.92L26.5306 27.16V27.28C26.5306 27.32 26.5306 27.4 26.5306 27.52C26.5306 27.6 26.5106 27.72 26.4706 27.88C26.5106 28 26.5306 28.2 26.5306 28.48C26.5306 28.64 26.4306 28.78 26.2306 28.9L26.1106 30.88C26.3506 31.08 26.4506 31.42 26.4106 31.9H27.1306C27.3706 31.9 27.5506 31.98 27.6706 32.14C27.7906 32.3 27.8706 32.38 27.9106 32.38L28.3306 32.2L28.7506 32.5C28.8706 32.5 28.9506 32.44 28.9906 32.32L29.3506 31.48V30.58L29.4106 29.68C29.4506 29.56 29.4706 29.46 29.4706 29.38C29.5106 29.26 29.5306 29.18 29.5306 29.14L29.4706 28.96C29.5506 28.8 29.5906 28.68 29.5906 28.6C29.5906 28.48 29.5906 28.4 29.5906 28.36L29.4706 27.82C29.6306 27.42 29.8306 27.22 30.0706 27.22C30.3906 27.38 30.8306 27.52 31.3906 27.64L31.6906 27.52C31.8106 27.48 31.9106 27.46 31.9906 27.46C32.0706 27.46 32.2106 27.62 32.4106 27.94C32.8506 27.78 33.0706 27.7 33.0706 27.7L33.5506 28H33.6706C34.1506 28 34.6106 27.8 35.0506 27.4L36.0706 28.36C35.8706 28.72 35.6506 29.18 35.4106 29.74C35.3706 29.94 35.3106 30.18 35.2306 30.46C35.1906 30.74 35.1106 31.04 34.9906 31.36C34.7106 31.48 34.5706 31.64 34.5706 31.84C34.5706 31.92 34.6306 32.06 34.7506 32.26C34.8706 32.5 34.9306 32.66 34.9306 32.74L34.8106 32.92C34.8906 33.12 34.8706 33.3 34.7506 33.46L34.5706 33.76C34.6106 33.8 34.6306 33.88 34.6306 34C34.6306 34.36 34.3706 34.66 33.8506 34.9L33.7306 35.02C33.7706 35.06 33.7906 35.12 33.7906 35.2C33.7906 35.48 33.6306 35.66 33.3106 35.74C32.8706 35.86 32.6106 35.96 32.5306 36.04C32.4506 36.16 32.3306 36.3 32.1706 36.46C32.0106 36.62 31.8306 36.8 31.6306 37C30.8306 37.52 30.2706 37.74 29.9506 37.66L29.2306 37.48C29.0306 37.48 28.8306 37.54 28.6306 37.66C28.4306 37.78 28.2706 37.82 28.1506 37.78L27.9106 37.72H27.6106C27.4506 37.72 27.3306 37.72 27.2506 37.72C27.1706 37.76 27.1106 37.78 27.0706 37.78C27.1106 37.78 27.1306 37.78 27.1306 37.78ZM28.3306 12.52L28.4506 12.28L28.2706 12.16C28.2706 12.28 28.2906 12.4 28.3306 12.52ZM32.5306 14.56C32.7306 14.56 32.8506 14.44 32.8906 14.2L32.8306 13.42H32.7106C32.5906 13.42 32.5306 13.32 32.5306 13.12C32.4506 12.92 32.3506 12.82 32.2306 12.82C32.0706 12.74 31.9506 12.8 31.8706 13C31.8306 13.04 31.8106 13.1 31.8106 13.18C31.8506 13.26 31.8706 13.34 31.8706 13.42L31.9306 13.84L31.7506 14.02L32.5306 14.56ZM27.2506 15.34C27.5706 15.22 27.5706 15.08 27.2506 14.92C27.1706 15 27.1706 15.14 27.2506 15.34ZM35.0506 15.28L34.9306 15.04L34.7506 15.16L35.0506 15.28ZM27.0706 20.74L27.6706 20.56L28.5106 20.32C28.7906 20.32 29.0906 20.3 29.4106 20.26C29.7306 20.18 30.0906 20.1 30.4906 20.02L30.6706 19.3C30.7106 19.26 30.8106 19.2 30.9706 19.12C30.8106 18.96 30.6706 18.8 30.5506 18.64C30.4706 18.48 30.4506 18.32 30.4906 18.16L30.5506 17.74V17.38C30.5506 17.02 30.3906 16.72 30.0706 16.48C30.1106 16.36 30.1306 16.2 30.1306 16C30.1306 15.68 29.7706 15.5 29.0506 15.46C28.9306 15.46 28.7106 15.58 28.3906 15.82L27.4306 16.48C27.5906 16.6 27.6106 16.76 27.4906 16.96C27.4506 17.12 27.3106 17.2 27.0706 17.2V17.38C27.1906 17.3 27.3106 17.36 27.4306 17.56C27.5106 17.72 27.5306 17.82 27.4906 17.86L27.3706 19.66C27.3706 19.78 27.3706 19.88 27.3706 19.96C27.4106 20.04 27.4306 20.08 27.4306 20.08C27.4306 20.2 27.3706 20.26 27.2506 20.26C27.1306 20.18 27.0306 20.08 26.9506 19.96L26.7706 20.08L26.7106 20.44L27.0706 20.74ZM31.2706 17.08C31.3506 17.2 31.4706 17.2 31.6306 17.08C31.5106 16.72 31.3906 16.72 31.2706 17.08ZM27.4306 20.02C27.4306 20.1 27.4306 20.12 27.4306 20.08C27.4306 20.08 27.4306 20.06 27.4306 20.02ZM22.1506 24.76C22.2706 24.68 22.4306 24.46 22.6306 24.1L22.5706 23.92H22.4506C22.2506 23.92 21.9906 24.02 21.6706 24.22C21.7906 24.42 21.9506 24.6 22.1506 24.76ZM33.6706 24.34C33.7106 24.22 33.6906 24.12 33.6106 24.04C33.5706 24 33.4706 24.02 33.3106 24.1C33.3106 24.18 33.4306 24.26 33.6706 24.34ZM23.2906 32.38L23.7706 32.14L23.7106 31.9L23.4106 31.84L23.2906 31.96V31.9L23.2306 31.66L23.0506 31.6L22.9306 32.26L23.2906 32.38ZM27.8506 33.34C27.8906 33.26 27.8706 33.18 27.7906 33.1C27.7106 33.02 27.6306 33.02 27.5506 33.1C27.5506 33.18 27.6506 33.26 27.8506 33.34ZM47.7533 37.9L46.7333 37.84C46.4133 37.8 46.1533 37.78 45.9533 37.78C45.7933 37.78 45.6933 37.78 45.6533 37.78C45.0533 37.78 44.6933 37.76 44.5733 37.72L43.5533 37.18C43.4733 37.14 43.3733 37.1 43.2533 37.06C43.1333 37.02 42.9933 36.98 42.8333 36.94C42.5933 36.82 42.4733 36.62 42.4733 36.34C42.3933 36.3 42.3133 36.28 42.2333 36.28C42.1533 36.24 42.0733 36.22 41.9933 36.22C41.9933 35.86 41.9133 35.62 41.7533 35.5L41.3333 35.32C41.2533 35.24 41.1533 35.02 41.0333 34.66L40.7933 34.06V33.88C40.7933 33.8 40.7733 33.7 40.7333 33.58C40.7333 33.42 40.7133 33.26 40.6733 33.1C40.6733 32.78 40.6733 32.5 40.6733 32.26C40.7133 32.02 40.7533 31.82 40.7933 31.66C40.6333 31.58 40.5133 31.46 40.4333 31.3C40.3933 31.22 40.4133 31.06 40.4933 30.82L40.5533 30.28C40.5933 30.08 40.6133 29.9 40.6133 29.74C40.6133 29.58 40.6333 29.42 40.6733 29.26C40.6733 29.06 40.7333 28.82 40.8533 28.54C41.0133 28.26 41.0933 28.08 41.0933 28C41.0933 27.96 41.0533 27.9 40.9733 27.82C40.8933 27.74 40.8533 27.7 40.8533 27.7C40.8533 27.62 40.8333 27.56 40.7933 27.52C40.7933 27.48 40.7933 27.44 40.7933 27.4C40.7933 27.16 40.8533 26.92 40.9733 26.68C40.8133 26.4 40.7333 26.06 40.7333 25.66C40.7333 25.34 40.8333 25.04 41.0333 24.76C40.9133 24.6 40.8133 24.44 40.7333 24.28V22.72C40.7333 22.72 40.6933 22.64 40.6133 22.48C40.5333 22.4 40.4933 22.32 40.4933 22.24C40.4933 22.12 40.7133 21.68 41.1533 20.92C40.8333 20.72 40.6733 20.6 40.6733 20.56L40.9733 19.48C40.9733 19.4 40.9533 19.28 40.9133 19.12C40.9133 18.96 40.9133 18.78 40.9133 18.58L40.8533 17.62C40.8133 17.18 40.8133 16.82 40.8533 16.54C40.8933 16.26 40.8933 16.04 40.8533 15.88C40.7333 15.68 40.5933 15.58 40.4333 15.58V15.28L40.9733 15.04C40.9733 14.96 40.9533 14.9 40.9133 14.86H39.8933V15.04C39.8933 15.2 39.9733 15.34 40.1333 15.46C40.2933 15.58 40.3733 15.68 40.3733 15.76L39.6533 15.7C39.4933 15.66 39.3533 15.64 39.2333 15.64C39.1533 15.64 39.0933 15.64 39.0533 15.64L38.6933 15.76C38.4533 15.84 38.3333 15.88 38.3333 15.88C38.1733 15.88 37.9333 15.8 37.6133 15.64C37.5733 15.56 37.5733 15.44 37.6133 15.28L37.7333 14.92C37.6933 14.8 37.6733 14.68 37.6733 14.56C37.6733 14.44 37.6733 14.34 37.6733 14.26C37.7533 14.02 37.8933 13.88 38.0933 13.84C37.9333 13.68 37.8333 13.52 37.7933 13.36C37.7933 13.16 37.7933 12.96 37.7933 12.76L37.7333 12.46C37.8133 12.1 37.8333 11.88 37.7933 11.8L37.6133 11.5C37.5333 11.34 37.4933 11.24 37.4933 11.2L37.7333 10.66C37.7733 10.62 37.8333 10.6 37.9133 10.6C37.9933 10.6 38.0933 10.58 38.2133 10.54C38.3333 10.5 38.4133 10.42 38.4533 10.3H38.5733L39.1733 10.48L39.9533 10.72C39.9933 10.76 40.0333 10.82 40.0733 10.9C40.1133 10.98 40.1533 11.08 40.1933 11.2C40.3533 11.08 40.5133 10.92 40.6733 10.72C40.8333 10.52 40.9933 10.28 41.1533 10C41.3933 9.84 41.4133 9.72 41.2133 9.64C41.0933 9.56 41.0333 9.44 41.0333 9.28L41.0933 7.36C40.8933 6.64 40.7933 6.14 40.7933 5.86L40.9733 5.38L41.0933 4.9C41.0933 4.78 41.0333 4.68 40.9133 4.6C40.7933 4.52 40.7333 4.36 40.7333 4.12L40.8533 3.52C40.9333 3.48 41.0133 3.42 41.0933 3.34C41.1733 3.26 41.2933 3.16 41.4533 3.04C41.6933 2.8 41.8333 2.68 41.8733 2.68L42.4133 2.92C42.5733 2.96 42.6933 3.02 42.7733 3.1C42.8533 3.18 42.9133 3.22 42.9533 3.22L43.1333 3.16H44.4533C44.7333 3.16 44.9533 3.18 45.1133 3.22C45.3133 3.22 45.4733 3.22 45.5933 3.22L46.0133 3.1C46.2533 3.02 46.3733 2.98 46.3733 2.98C46.6533 2.98 46.7933 3.18 46.7933 3.58C46.7933 3.7 46.7733 3.86 46.7333 4.06C46.7333 4.22 46.7133 4.42 46.6733 4.66L46.4333 4.6C46.2733 4.6 46.0733 4.68 45.8333 4.84C45.4733 5.04 45.3333 5.3 45.4133 5.62C45.4933 5.7 45.5333 5.74 45.5333 5.74C45.5733 5.74 45.6533 5.68 45.7733 5.56C45.9333 5.48 46.0333 5.44 46.0733 5.44C46.2733 5.44 46.4733 5.6 46.6733 5.92C46.8333 6.2 46.9133 6.38 46.9133 6.46C46.9133 6.54 46.8733 6.64 46.7933 6.76C46.7533 6.84 46.7133 6.9 46.6733 6.94C46.6333 7.62 46.5933 8.1 46.5533 8.38C46.5533 8.66 46.5533 8.72 46.5533 8.56C46.2733 8.6 46.1333 8.72 46.1333 8.92C46.1333 9.12 46.2533 9.26 46.4933 9.34V9.7C46.4933 9.94 46.5933 10.36 46.7933 10.96C46.8333 11.04 46.9733 11.16 47.2133 11.32H47.3933V10.9C47.4333 10.74 47.5533 10.66 47.7533 10.66C48.5533 10.54 48.8933 10.48 48.7733 10.48L49.0733 10.54C49.1933 10.58 49.3133 10.6 49.4333 10.6L50.0333 11.02C49.9933 11.18 49.9733 11.34 49.9733 11.5C49.9733 11.62 49.9733 11.78 49.9733 11.98C50.2933 12.3 50.4533 12.44 50.4533 12.4C50.4533 12.52 50.3733 12.66 50.2133 12.82C50.2533 12.86 50.2933 12.9 50.3333 12.94C50.2533 12.98 50.1933 13.14 50.1533 13.42L50.2133 13.6C50.2533 13.68 50.2733 13.76 50.2733 13.84C50.2733 14.16 50.2533 14.48 50.2133 14.8C50.2133 15.08 50.1933 15.34 50.1533 15.58C50.0733 15.82 49.9533 15.94 49.7933 15.94H49.7333H49.7933C49.7933 15.9 49.6133 15.82 49.2533 15.7C49.0933 15.66 48.7733 15.64 48.2933 15.64C48.0933 15.64 47.6933 15.7 47.0933 15.82L46.8533 16C46.6933 16.08 46.6133 16.12 46.6133 16.12L46.5533 16.66C46.5133 17.06 46.4533 17.26 46.3733 17.26C46.6133 17.82 46.7333 18.34 46.7333 18.82C46.6933 18.82 46.5933 19.06 46.4333 19.54C46.4733 19.46 46.4933 19.68 46.4933 20.2L46.3733 20.5C46.2933 20.74 46.2533 20.86 46.2533 20.86L46.4333 21.58C46.5133 21.78 46.5533 21.96 46.5533 22.12C46.5533 22.24 46.5533 22.32 46.5533 22.36C46.5533 22.36 46.4733 22.46 46.3133 22.66C46.2733 22.66 46.2533 22.76 46.2533 22.96C46.2533 23.2 46.3533 23.36 46.5533 23.44V25.42C46.5533 25.46 46.5133 25.52 46.4333 25.6C46.3533 25.76 46.3133 25.86 46.3133 25.9C46.2733 26.18 46.2733 26.42 46.3133 26.62C46.3933 26.94 46.4533 27.08 46.4933 27.04C46.3733 27.16 46.2733 27.28 46.1933 27.4C46.2733 27.48 46.3733 27.76 46.4933 28.24C46.0133 28.52 45.7733 28.76 45.7733 28.96C45.7733 28.88 45.9333 29.12 46.2533 29.68C46.2533 29.68 46.2933 30 46.3733 30.64L46.4933 30.82C46.4933 30.98 46.4933 31.16 46.4933 31.36C46.4933 31.52 46.5133 31.72 46.5533 31.96C46.5533 31.96 46.7933 32.12 47.2733 32.44C47.2733 32.6 47.3733 32.74 47.5733 32.86H47.6933C47.7733 32.86 47.9133 32.78 48.1133 32.62C48.2733 32.46 48.4133 32.38 48.5333 32.38C48.5333 32.38 48.6133 32.42 48.7733 32.5C48.8533 32.58 48.9133 32.62 48.9533 32.62C49.0333 32.62 49.1533 32.58 49.3133 32.5C49.3933 32.42 49.4733 32.36 49.5533 32.32C49.6333 32.24 49.7333 32.16 49.8533 32.08L50.0933 32.26V34.78C50.0933 34.82 50.0733 34.86 50.0333 34.9C49.9533 34.98 49.9133 35.04 49.9133 35.08V35.68C49.8333 35.76 49.7533 35.82 49.6733 35.86C49.7133 36.14 49.7933 36.36 49.9133 36.52C50.0333 36.64 50.0933 36.82 50.0933 37.06C50.0933 37.46 49.8733 37.66 49.4333 37.66H49.2533C49.2133 37.66 49.1733 37.64 49.1333 37.6C49.1333 37.6 49.1133 37.6 49.0733 37.6L48.4133 37.78C48.2133 37.82 48.0533 37.84 47.9333 37.84C47.8533 37.88 47.7933 37.9 47.7533 37.9ZM42.8933 12.4C43.1333 12.4 43.2533 12.28 43.2533 12.04L43.1333 11.68H42.8333C42.7133 11.8 42.6133 11.9 42.5333 11.98C42.4933 12.06 42.4533 12.12 42.4133 12.16C42.4533 12.2 42.4733 12.26 42.4733 12.34H42.7133C42.7533 12.34 42.7733 12.36 42.7733 12.4C42.8133 12.4 42.8533 12.4 42.8933 12.4ZM48.7733 12.28L49.0133 12.16L48.7133 11.98C48.6733 12.02 48.6333 12.04 48.5933 12.04L48.7733 12.28ZM50.3333 12.94V13.06C50.3333 13.02 50.3333 12.98 50.3333 12.94ZM44.0933 13.78C44.1333 13.74 44.0933 13.66 43.9733 13.54L43.7933 13.66C43.8333 13.7 43.8733 13.72 43.9133 13.72C43.9933 13.72 44.0533 13.74 44.0933 13.78ZM44.1533 14.74C44.1933 14.66 44.1733 14.58 44.0933 14.5C44.0133 14.42 43.9133 14.42 43.7933 14.5C43.8333 14.58 43.9533 14.66 44.1533 14.74ZM46.7333 18.82V18.88V18.82ZM44.9933 24.94L45.1133 24.88C45.1533 24.84 45.1933 24.82 45.2333 24.82L45.1133 24.64C45.0733 24.68 45.0533 24.72 45.0533 24.76C45.0533 24.8 45.0333 24.86 44.9933 24.94ZM42.6533 26.86C42.7333 26.9 42.8133 26.88 42.8933 26.8C42.9733 26.72 42.9533 26.62 42.8333 26.5C42.7133 26.54 42.6533 26.66 42.6533 26.86ZM42.1733 34.42L42.4733 34.72C42.5533 34.72 42.6933 34.7 42.8933 34.66L43.1933 34.3L42.7733 33.94C42.7333 33.98 42.5333 34.06 42.1733 34.18V34.42ZM40.6133 36.1C40.5333 36.1 40.4333 36.04 40.3133 35.92C40.3533 35.88 40.4133 35.86 40.4933 35.86C40.6133 35.86 40.6533 35.94 40.6133 36.1ZM59.7327 37.9L59.3127 37.78C59.0727 37.66 58.9127 37.6 58.8327 37.6L58.4127 37.66H58.2327C58.2727 37.66 58.1927 37.64 57.9927 37.6C57.7927 37.6 57.4127 37.54 56.8527 37.42C56.6927 37.14 56.5327 37 56.3727 37L56.0727 37.06C56.0327 37.06 55.9927 37.06 55.9527 37.06C55.9127 37.1 55.8727 37.12 55.8327 37.12C55.6727 37.12 55.4927 37.02 55.2927 36.82C55.2127 36.74 55.1127 36.64 54.9927 36.52C54.8727 36.36 54.7127 36.2 54.5127 36.04C53.8727 35.88 53.4527 35.6 53.2527 35.2C53.2527 34.96 53.1927 34.82 53.0727 34.78C52.9127 34.74 52.8327 34.62 52.8327 34.42C52.8327 34.18 52.9127 33.82 53.0727 33.34L52.1727 32.98L51.8727 31.78C51.7927 31.58 51.6727 31.36 51.5127 31.12C51.3927 30.84 51.2327 30.54 51.0327 30.22V29.86C51.0327 29.62 51.0727 29.46 51.1527 29.38C51.1927 29.34 51.3127 29.32 51.5127 29.32H51.6927C51.7327 29.32 51.7527 29.34 51.7527 29.38C51.7527 29.38 51.7727 29.38 51.8127 29.38L52.1127 29.2C52.1527 29.16 52.3127 29.14 52.5927 29.14L52.8327 29.2C52.8727 29.2 52.8927 29.22 52.8927 29.26C52.9327 29.26 52.9727 29.26 53.0127 29.26L53.7327 29.02L53.9127 28.84C54.0727 28.76 54.2727 28.7 54.5127 28.66C54.7527 28.62 55.0727 28.58 55.4727 28.54L55.6527 28.6C55.6127 28.6 55.5927 28.74 55.5927 29.02C55.5927 29.22 55.7127 29.32 55.9527 29.32C55.9927 29.32 56.2127 29.08 56.6127 28.6C56.6927 28.84 56.7327 29.24 56.7327 29.8C56.7327 30.08 56.8127 30.28 56.9727 30.4C57.0927 30.6 57.1327 30.8 57.0927 31C57.0927 31.08 57.1327 31.12 57.2127 31.12C56.8927 31.12 56.7327 31.2 56.7327 31.36C56.7327 31.64 56.8727 31.78 57.1527 31.78C57.2327 31.78 57.3727 31.62 57.5727 31.3C57.6127 31.38 57.7327 31.6 57.9327 31.96C58.0527 32.08 58.4727 32.32 59.1927 32.68C59.5127 32.8 59.9327 32.86 60.4527 32.86C60.6127 32.86 60.7927 32.7 60.9927 32.38C61.2727 32.38 61.5327 32.18 61.7727 31.78C61.7327 31.82 61.6927 31.84 61.6527 31.84C61.6527 31.8 61.6327 31.78 61.5927 31.78C61.5927 31.74 61.5927 31.7 61.5927 31.66C61.5927 31.54 61.6127 31.42 61.6527 31.3C61.7327 31.14 61.7927 30.98 61.8327 30.82C61.7527 30.74 61.6527 30.62 61.5327 30.46C61.4527 30.26 61.3527 30.04 61.2327 29.8C61.4327 29.6 61.3927 29.38 61.1127 29.14L60.5127 28.72L60.6327 28.06C60.5127 27.86 60.0327 27.7 59.1927 27.58L58.9527 27.1C58.7527 26.9 58.4727 26.68 58.1127 26.44C57.9927 26.44 57.8127 26.38 57.5727 26.26C57.5327 26.22 57.4927 26.18 57.4527 26.14C57.4127 26.06 57.3527 26 57.2727 25.96C57.2327 25.92 57.1127 25.9 56.9127 25.9C56.7927 25.82 56.6127 25.64 56.3727 25.36L56.3127 24.88C56.1927 24.88 55.9727 24.84 55.6527 24.76C55.3327 24.64 55.0927 24.5 54.9327 24.34L54.5127 23.62C54.1527 23.3 53.8127 22.96 53.4927 22.6C52.9727 22.08 52.6927 21.66 52.6527 21.34L53.0127 20.92C52.9727 20.92 52.8727 20.92 52.7127 20.92C52.5927 20.92 52.4527 20.78 52.2927 20.5V20.08C52.2127 19.8 52.1327 19.64 52.0527 19.6C52.0127 19.52 51.9927 19.46 51.9927 19.42L52.0527 19.18V18.16C52.0927 18.2 52.1527 18.22 52.2327 18.22C52.4327 18.22 52.5327 18.1 52.5327 17.86C52.5327 17.58 52.3327 17.44 51.9327 17.44C52.3727 17.12 52.5927 16.82 52.5927 16.54C52.5927 16.26 52.3927 16 51.9927 15.76C51.9527 15.56 52.0127 15.38 52.1727 15.22L52.6527 14.98C52.6927 14.9 52.7327 14.82 52.7727 14.74C52.8527 14.62 52.9527 14.48 53.0727 14.32C53.0327 14.24 52.9927 14.14 52.9527 14.02C52.9527 13.9 52.9527 13.8 52.9527 13.72C52.9527 13.48 52.9927 13.3 53.0727 13.18C53.1127 13.14 53.1727 13.12 53.2527 13.12C53.3327 13.12 53.4327 13.1 53.5527 13.06L53.7927 12.58C54.3927 12.58 54.5927 12.36 54.3927 11.92H54.4527C54.5727 11.92 54.7127 11.74 54.8727 11.38C54.9527 11.38 55.1727 11.26 55.5327 11.02C55.6927 10.86 55.9127 10.78 56.1927 10.78H56.3727C56.4127 10.78 56.4327 10.8 56.4327 10.84C56.4727 10.84 56.5127 10.84 56.5527 10.84L56.7927 10.78C56.7927 10.7 56.8527 10.6 56.9727 10.48C57.2927 10.24 57.5327 10.12 57.6927 10.12L58.1727 10.24L58.3527 10.18H58.5327C59.1327 10.18 59.5727 10.32 59.8527 10.6L59.7927 10.9H59.9127C59.9527 10.9 60.0727 10.8 60.2727 10.6C60.4327 10.44 60.5927 10.36 60.7527 10.36C60.9927 10.36 61.1927 10.42 61.3527 10.54C61.5527 10.66 61.6727 10.72 61.7127 10.72L62.1927 10.6C62.3527 10.56 62.4527 10.54 62.4927 10.54C62.5727 10.54 62.6327 10.54 62.6727 10.54C62.7927 10.54 62.9127 10.56 63.0327 10.6L63.2727 10.72C63.3127 10.8 63.4527 10.96 63.6927 11.2H63.7527C63.9927 11.2 64.3727 11.32 64.8927 11.56C65.1727 11.76 65.3927 12.06 65.5527 12.46L66.0927 13.54C66.0927 13.86 66.1527 14.3 66.2727 14.86C66.3527 14.94 66.4527 15.06 66.5727 15.22C66.6927 15.34 66.8327 15.5 66.9927 15.7C66.9927 15.74 66.9727 15.82 66.9327 15.94C66.9327 16.02 66.9127 16.12 66.8727 16.24C66.9927 16.36 67.0927 16.56 67.1727 16.84C67.2127 16.96 67.2527 17.06 67.2927 17.14C67.3327 17.22 67.3727 17.3 67.4127 17.38V17.68L66.3327 18.1C65.7327 18.26 65.2127 18.38 64.7727 18.46C64.3727 18.54 64.0327 18.58 63.7527 18.58L63.5727 18.52C63.5327 18.52 63.4927 18.52 63.4527 18.52C63.4527 18.48 63.4327 18.46 63.3927 18.46C63.3127 18.46 63.2127 18.52 63.0927 18.64L62.8527 18.88C62.4927 19 62.2127 19.06 62.0127 19.06C61.8527 19.06 61.6727 18.88 61.4727 18.52C61.3127 18.24 61.2327 18.04 61.2327 17.92C61.2327 16.56 61.1927 15.92 61.1127 16C60.7127 15.76 60.4327 15.7 60.2727 15.82H60.2127L59.6727 15.58C59.5127 15.5 59.3727 15.46 59.2527 15.46C59.1727 15.42 59.1127 15.4 59.0727 15.4L58.7727 15.46C58.6527 15.5 58.5527 15.52 58.4727 15.52C58.3927 15.52 58.3127 15.52 58.2327 15.52L58.1127 16.06C58.0327 16.1 57.8727 16.24 57.6327 16.48L57.4527 17.26C57.6527 17.3 57.7927 17.44 57.8727 17.68C57.9527 18.04 57.9927 18.22 57.9927 18.22C57.9527 18.26 57.7127 18.32 57.2727 18.4C57.1927 18.4 57.1127 18.44 57.0327 18.52C57.0727 18.64 57.3527 18.74 57.8727 18.82C57.9927 18.94 58.0727 19.14 58.1127 19.42L58.7727 19.54C58.7727 19.7 58.8527 19.88 59.0127 20.08C59.0527 20.08 59.1527 20.12 59.3127 20.2C59.3927 20.36 59.5127 20.52 59.6727 20.68C59.8727 20.68 60.0527 20.74 60.2127 20.86C60.4127 21.06 60.5127 21.24 60.5127 21.4H60.3927C60.2727 21.4 60.1127 21.46 59.9127 21.58V21.82C59.9927 21.9 60.0927 21.98 60.2127 22.06C60.3727 22.1 60.5527 22.1 60.7527 22.06L60.9327 22H61.1127L61.3527 22.18C61.5927 22.22 61.7727 22.24 61.8927 22.24C62.0127 22.24 62.0927 22.24 62.1327 22.24C62.4527 22.32 62.6727 22.44 62.7927 22.6C62.9127 22.92 63.1127 23.24 63.3927 23.56L63.9927 23.74C64.1927 23.86 64.3327 24.04 64.4127 24.28C65.0127 24.8 65.3127 25.18 65.3127 25.42V25.54L66.0327 26.26C66.0327 26.34 66.0327 26.44 66.0327 26.56C66.0727 26.68 66.1127 26.82 66.1527 26.98C66.2327 27.02 66.3127 27.06 66.3927 27.1C66.4727 27.14 66.5527 27.2 66.6327 27.28C66.8727 27.56 66.9927 27.78 66.9927 27.94L66.8727 28.24C66.8327 28.32 66.7927 28.38 66.7527 28.42C66.7527 28.46 66.7527 28.5 66.7527 28.54C66.7527 28.66 66.8927 28.94 67.1727 29.38C67.1727 29.38 67.1327 29.48 67.0527 29.68L67.1727 30.22L67.2927 30.64L67.1127 31.24C67.1527 31.32 67.1727 31.52 67.1727 31.84C67.1327 31.88 67.0927 31.92 67.0527 31.96C67.0127 31.96 66.9727 32 66.9327 32.08L66.4527 33.58C66.4527 33.66 66.4527 33.78 66.4527 33.94C66.4527 34.06 66.4327 34.2 66.3927 34.36C66.3127 34.68 65.9927 34.84 65.4327 34.84L65.0127 35.86L64.1127 36.46C63.9927 36.58 63.7127 36.8 63.2727 37.12H62.7927L61.8327 37.54C60.5927 37.78 59.8927 37.9 59.7327 37.9ZM58.6527 11.56C58.6927 11.48 58.6727 11.4 58.5927 11.32C58.5527 11.28 58.4527 11.3 58.2927 11.38C58.3727 11.5 58.4927 11.56 58.6527 11.56ZM66.3327 17.2C66.3327 16.92 66.3127 16.78 66.2727 16.78L65.9727 16.72C65.9327 16.72 65.8927 16.72 65.8527 16.72C65.8127 16.68 65.7727 16.66 65.7327 16.66C65.6527 16.74 65.6127 16.88 65.6127 17.08L66.3327 17.2ZM53.5527 17.56C53.5527 17.4 53.5327 17.3 53.4927 17.26C53.3727 17.22 53.2727 17.24 53.1927 17.32C53.1927 17.4 53.3127 17.48 53.5527 17.56ZM57.5127 21.82C57.7127 21.74 57.8127 21.66 57.8127 21.58C57.8127 21.5 57.7127 21.42 57.5127 21.34V21.82ZM53.4327 31.54C53.4327 31.46 53.3927 31.34 53.3127 31.18L53.1327 31.24C52.9327 31.24 52.8727 31.14 52.9527 30.94L52.8327 31.18C52.8727 31.3 52.9527 31.42 53.0727 31.54H53.4327ZM64.5927 33.16C64.5527 33.16 64.8127 32.96 65.3727 32.56V32.32C65.1327 32.04 64.9127 31.9 64.7127 31.9H64.5327C64.5327 31.98 64.5127 32.08 64.4727 32.2C64.4727 32.28 64.4527 32.38 64.4127 32.5C64.2127 32.82 64.1127 32.98 64.1127 32.98C64.2327 33.1 64.3927 33.16 64.5927 33.16ZM58.4127 35.68L58.0527 35.26H57.8127L57.7527 35.44L58.4127 35.68ZM77.4463 37.84L77.0263 37.66C76.7863 37.66 76.5863 37.64 76.4263 37.6L75.8262 37.18C75.5863 37.18 75.4663 37.26 75.4663 37.42C75.4263 37.54 75.3463 37.6 75.2263 37.6L74.7463 37.36C74.7463 37.4 74.6463 37.44 74.4463 37.48C74.3263 37.28 74.1463 37.1 73.9063 36.94C73.9063 36.94 73.8063 36.98 73.6063 37.06C73.4463 36.98 73.2063 36.8 72.8863 36.52L72.3463 35.98L71.9263 36.04C71.8863 35.96 71.8263 35.86 71.7463 35.74C71.6663 35.58 71.5863 35.42 71.5063 35.26C71.5063 35.18 71.3863 35.06 71.1463 34.9L70.9063 34.12C70.9063 34.08 70.8463 34.04 70.7263 34C70.6863 34.04 70.6063 34.06 70.4863 34.06C70.4063 34.06 70.3263 34 70.2463 33.88L69.9463 32.62C69.9063 32.46 69.8663 32.32 69.8263 32.2C69.8263 32.04 69.8263 31.92 69.8263 31.84L69.6463 31.6C69.6463 31.52 69.6263 31.4 69.5863 31.24C69.5463 31.08 69.5063 30.88 69.4663 30.64L69.3463 29.92C69.3863 29.52 69.4063 29.26 69.4063 29.14C69.4063 29.02 69.4263 29 69.4663 29.08L69.9463 28.84C69.7863 28.76 69.6663 28.72 69.5863 28.72L69.6463 28.24L69.3463 27.94C69.3063 27.74 69.2663 27.54 69.2263 27.34C69.2263 27.1 69.2463 26.9 69.2863 26.74L69.3463 26.5H69.6463C69.7663 26.3 69.8263 26.08 69.8263 25.84L69.4063 25.6C69.4063 25.48 69.4063 25.34 69.4063 25.18C69.4063 25.02 69.3863 24.86 69.3463 24.7C69.3863 24.34 69.4263 24.02 69.4663 23.74C69.5063 23.46 69.5463 23.24 69.5863 23.08C69.6263 23 69.7663 22.84 70.0063 22.6C69.8863 22.48 69.7663 22.4 69.6463 22.36V22.06C69.7663 21.94 69.8463 21.82 69.8862 21.7C69.9663 21.5 70.0463 21.18 70.1263 20.74C70.1663 20.7 70.2863 20.68 70.4863 20.68L70.9063 20.74C70.9063 20.74 70.9463 20.7 71.0263 20.62L70.7863 20.2C70.7063 20.2 70.6463 20.22 70.6063 20.26C70.4463 20.3 70.3463 20.4 70.3063 20.56C69.9863 20.52 69.8263 20.3 69.8263 19.9L69.9463 17.86C70.1463 17.54 70.2463 17.18 70.2463 16.78L70.0663 16.12C70.1063 16.04 70.1263 15.94 70.1263 15.82C70.1263 15.66 70.1463 15.5 70.1863 15.34L70.6063 15.1C70.5263 15.1 70.4463 15.08 70.3663 15.04L70.4263 14.2C70.4663 14.2 70.5063 14.14 70.5463 14.02C70.5463 13.98 70.4263 13.84 70.1863 13.6L70.4863 11.8C70.6063 11.68 70.6863 11.56 70.7263 11.44C70.8063 11.16 70.9063 10.96 71.0263 10.84C71.1863 10.68 71.2663 10.54 71.2663 10.42L71.2063 10.3C71.2063 10.26 71.2063 10.16 71.2063 10C71.2063 9.84 71.2263 9.62 71.2663 9.34C71.2663 9.22 71.2463 9.1 71.2063 8.98C71.2063 8.82 71.2063 8.66 71.2063 8.5C71.2063 7.9 71.2663 7.12 71.3863 6.16C71.4263 6.16 71.5063 6.22 71.6263 6.34H71.7463C71.7863 6.34 71.8063 6.3 71.8063 6.22L71.6863 5.8L71.5663 5.32C71.5663 5.16 71.6263 5 71.7463 4.84C71.9063 4.76 72.0663 4.64 72.2263 4.48L72.4663 3.58C72.5863 3.42 72.8663 3.24 73.3063 3.04C73.3063 3.28 73.4063 3.4 73.6063 3.4H73.7263C73.9263 3.4 74.0263 3.28 74.0263 3.04L73.8463 2.44L74.8663 1.54L74.9263 1.48C75.0063 1.48 75.2863 1.68 75.7663 2.08L75.8262 2.02C75.9063 1.94 75.9463 1.86 75.9463 1.78C75.9463 1.5 75.9063 1.4 75.8262 1.48L75.8863 1.12H76.6063L77.0263 0.939999C77.2263 0.859998 77.3463 0.839997 77.3863 0.879997L77.6863 0.999999C77.6863 1.04 77.6863 1.1 77.6863 1.18C77.6863 1.26 77.6663 1.38 77.6263 1.54L77.8063 1.6C77.9663 1.6 78.0663 1.52 78.1063 1.36V0.939999C78.1063 0.859998 78.0863 0.779998 78.0463 0.699999C78.0463 0.619998 78.0463 0.559997 78.0463 0.519998C78.2463 0.399999 78.4663 0.36 78.7063 0.399999L79.3063 0.579997L79.9063 0.459998L80.4463 0.34C80.5663 0.34 80.7663 0.419999 81.0463 0.579997C81.0463 0.619999 81.1663 0.64 81.4063 0.64H82.1263L82.8463 0.819997C82.8863 0.859997 82.9263 0.899997 82.9663 0.939999C83.0063 0.979999 83.0663 1.02 83.1463 1.06L83.3863 0.999999H83.5663C83.8063 0.999999 84.1863 1.3 84.7063 1.9L85.3063 2.08C85.3863 2.16 85.4663 2.26 85.5462 2.38C85.9063 2.54 86.1463 2.78 86.2663 3.1C86.3063 3.14 86.3263 3.34 86.3263 3.7C86.4063 3.98 86.5463 4.2 86.7463 4.36C86.7863 4.4 86.8663 4.46 86.9863 4.54C87.1063 4.62 87.2863 4.7 87.5263 4.78C87.7663 5.14 87.8663 5.4 87.8263 5.56C87.8263 5.6 87.6663 5.72 87.3463 5.92C87.0263 6.12 86.8663 6.24 86.8663 6.28C86.8663 6.36 86.8863 6.48 86.9263 6.64C86.9663 6.76 87.0663 6.88 87.2263 7L87.6463 7.36C87.6863 7.36 87.7063 7.38 87.7063 7.42C87.7863 7.5 87.8263 7.6 87.8263 7.72L88.0663 7.84L88.2463 9.46L88.0663 12.46C88.0263 12.5 87.9863 12.54 87.9463 12.58C87.9063 12.62 87.8663 12.68 87.8263 12.76C87.8263 12.92 87.8063 13.1 87.7663 13.3C87.7663 13.5 87.7463 13.74 87.7063 14.02L87.5863 14.26L87.1663 14.2C87.0463 14.24 86.8463 14.26 86.5663 14.26C86.4863 14.26 86.3263 14.2 86.0863 14.08C85.8463 13.96 85.6863 13.9 85.6063 13.9C85.3263 13.94 85.0263 14 84.7063 14.08C84.3863 14.12 84.0463 14.16 83.6863 14.2C83.5663 14.08 83.4463 14 83.3262 13.96C83.2463 14 83.0863 14.02 82.8463 14.02L81.6463 13.84C81.4463 13.64 81.3463 13.42 81.3463 13.18C81.3463 13.06 81.4663 12.86 81.7063 12.58L81.6463 12.28C81.6863 12.24 81.7063 12.18 81.7063 12.1C81.7063 12.02 81.7263 11.92 81.7663 11.8C81.7263 11 81.8263 10.12 82.0663 9.16C81.9463 9.08 81.7863 8.92 81.5863 8.68C81.8663 8.6 82.1863 8.44 82.5463 8.2V7.96L82.3663 7.9C82.3663 7.9 82.2063 8.02 81.8863 8.26L81.6463 8.2L81.7063 7.36C81.8663 7.28 82.0063 7.18 82.1263 7.06C82.1263 6.82 82.0663 6.62 81.9463 6.46L81.2863 7.06L80.7463 6.7C80.5463 6.62 80.2663 6.56 79.9063 6.52C79.8663 6.56 79.7863 6.58 79.6663 6.58C79.6263 6.58 79.5063 6.48 79.3063 6.28L78.2263 7.12C77.9063 7.4 77.7063 7.7 77.6263 8.02C77.3863 8.02 77.2663 8.2 77.2663 8.56L77.4463 9.34C77.4463 9.5 77.3663 9.64 77.2063 9.76C77.0063 9.68 76.8663 9.48 76.7863 9.16L76.6063 9.1L76.4863 9.34C76.4863 9.46 76.6063 9.62 76.8463 9.82L77.2063 10.06C77.2063 10.3 77.1863 10.5 77.1463 10.66L77.3263 11.74L77.0263 12.58V13.3L76.6663 13.78V14.02C76.6663 14.5 76.5063 14.84 76.1863 15.04C76.3463 15.04 76.5663 15.16 76.8463 15.4L76.0663 17.2C76.1063 17.32 76.1063 17.7 76.0663 18.34L75.8262 22.12L76.1263 25.84C76.1263 25.96 76.0063 26.18 75.7663 26.5C75.8063 26.54 75.8462 26.6 75.8863 26.68C75.9663 26.76 76.0663 26.84 76.1863 26.92V27.1L75.6463 27.28C75.6463 27.32 75.6663 27.38 75.7063 27.46C75.7463 27.5 75.7863 27.56 75.8262 27.64L75.9463 28C75.7063 28.16 75.5063 28.56 75.3463 29.2C75.5063 29.24 75.6263 29.44 75.7063 29.8C75.7863 30.16 75.7663 30.4 75.6463 30.52C75.6863 30.56 75.9063 30.58 76.3063 30.58V30.88L76.1263 31.12C76.1663 31.16 76.2463 31.22 76.3663 31.3C76.4863 31.38 76.6463 31.46 76.8463 31.54C76.8463 31.74 76.9463 32 77.1463 32.32L77.3863 32.26L77.5663 32.2C77.5663 32.2 77.6863 32.24 77.9263 32.32H78.1063C78.3063 32.32 78.4663 32.26 78.5863 32.14C78.5863 32.1 78.6463 32.06 78.7663 32.02C78.8463 31.94 78.8863 31.9 78.8863 31.9V31.84C78.8063 31.84 78.7663 31.84 78.7663 31.84L78.5863 31.9C78.6263 31.86 78.6863 31.84 78.7663 31.84L79.0663 31.72L79.4863 31.6C79.5263 31.6 79.5663 31.62 79.6063 31.66C79.6063 31.7 79.6263 31.72 79.6663 31.72C79.7863 31.72 79.8863 31.62 79.9663 31.42C80.0463 31.34 80.0663 31.18 80.0263 30.94C80.4263 30.7 80.5063 30.38 80.2663 29.98C80.4663 29.54 80.5463 29 80.5063 28.36L80.6863 25.6C80.8463 25.52 81.0063 25.4 81.1663 25.24C81.3663 25 81.4863 24.84 81.5263 24.76C81.5263 24.76 81.5063 24.76 81.4663 24.76C81.4263 24.76 81.2863 24.64 81.0463 24.4C81.0063 24.28 80.8863 24.16 80.6863 24.04L79.4263 23.98C79.3463 24.06 79.2663 24.1 79.1863 24.1L78.8263 23.92C78.7863 23.92 78.7463 23.94 78.7063 23.98C78.7063 23.98 78.6863 23.98 78.6463 23.98L78.3463 24.04C78.3063 24.04 78.2463 24 78.1663 23.92C78.1263 23.88 78.0463 23.86 77.9263 23.86C77.8863 23.9 77.7463 23.92 77.5063 23.92L77.3863 23.68L77.4463 23.14L77.3863 22.78V22.66C77.3863 22.5 77.4663 22.3 77.6263 22.06C77.7863 21.86 77.8663 21.72 77.8663 21.64L77.6263 21.16L77.8063 20.8L77.6263 20.26C77.7463 20.14 77.9863 19.96 78.3463 19.72C78.3463 19.68 78.2863 19.6 78.1663 19.48C78.1663 19.48 78.0663 19.54 77.8663 19.66H77.5663V19.36C77.6063 19.32 77.6463 19.28 77.6863 19.24C77.7263 19.16 77.7663 19.1 77.8063 19.06C77.8063 19.06 77.8463 18.92 77.9263 18.64C78.2463 18.44 78.4463 18.34 78.5263 18.34L78.8863 18.52C79.0863 18.64 79.2063 18.7 79.2463 18.7L79.4863 18.64C79.5663 18.6 79.6663 18.58 79.7863 18.58L82.2463 18.46C82.4863 18.5 82.6263 18.64 82.6663 18.88L82.8463 19.48C82.9263 19.44 83.1463 19.32 83.5063 19.12C83.7463 18.88 83.9463 18.8 84.1063 18.88L84.6463 19.06C84.7263 19.02 84.8063 19 84.8863 19C84.9663 19 85.0663 18.98 85.1863 18.94C85.3863 18.98 85.5663 19.04 85.7263 19.12C85.9263 19.16 86.1263 19.2 86.3263 19.24H86.4463C86.7663 19.24 87.0463 19.1 87.2863 18.82C87.4863 18.9 87.5663 19.14 87.5263 19.54L87.1663 20.98L87.2863 21.22C87.3263 21.34 87.3463 21.48 87.3463 21.64C87.3063 21.92 87.2063 22.06 87.0463 22.06L86.8663 22C86.8263 22.04 86.8063 22.1 86.8063 22.18C86.8063 22.18 86.8463 22.22 86.9263 22.3H87.1663C87.1663 22.46 87.1463 22.64 87.1063 22.84C87.1063 23.04 87.0863 23.28 87.0463 23.56C86.9263 23.68 86.8463 23.8 86.8063 23.92L86.8663 24.1C86.8663 24.3 86.8663 24.58 86.8663 24.94C86.9063 25.3 86.9463 25.76 86.9863 26.32C86.8663 26.44 86.6863 26.5 86.4463 26.5C86.3663 26.46 86.2863 26.48 86.2063 26.56C86.1263 26.64 86.1063 26.7 86.1463 26.74C86.2263 26.82 86.3463 26.84 86.5063 26.8C86.5463 26.76 86.6063 26.78 86.6863 26.86C86.7663 27.42 86.8063 27.92 86.8063 28.36C86.8463 28.8 86.8463 29.18 86.8063 29.5L86.6263 30.52C86.5863 30.76 86.5463 30.98 86.5063 31.18C86.4663 31.34 86.4463 31.48 86.4463 31.6L86.3863 32.14C86.3063 32.14 86.1263 32.18 85.8463 32.26C85.6063 32.3 85.4863 32.36 85.4863 32.44C85.4863 32.56 85.8063 32.64 86.4463 32.68V32.92C86.4463 33.04 86.4463 33.18 86.4463 33.34C86.4463 33.46 86.4263 33.62 86.3863 33.82C86.2663 34.5 86.2263 34.96 86.2663 35.2C86.2663 35.28 86.2263 35.36 86.1463 35.44C86.1863 35.52 86.2063 35.66 86.2063 35.86V36.04C86.0463 36.12 85.9063 36.22 85.7863 36.34C85.7463 36.3 85.7063 36.26 85.6663 36.22C85.6263 36.18 85.5863 36.14 85.5462 36.1C85.4663 36.1 85.3863 36.14 85.3063 36.22L85.2463 36.76L85.4263 36.82C85.5463 36.82 85.7663 36.72 86.0863 36.52L86.1463 36.88L85.9063 37.66C85.6263 37.62 85.3463 37.6 85.0663 37.6C84.8263 37.6 84.6063 37.58 84.4063 37.54L83.8063 37.42C83.8063 37.38 83.8863 37.36 84.0463 37.36C84.0863 37.4 84.1663 37.36 84.2863 37.24L84.3463 37.06C84.1863 36.9 84.0063 36.8 83.8063 36.76C83.6063 37.04 83.4263 37.2 83.2663 37.24C83.1863 37.32 83.1463 37.4 83.1463 37.48C83.0263 37.56 82.8063 37.56 82.4863 37.48C82.4063 37.56 82.3463 37.28 82.3063 36.64L82.2463 36.04C82.1663 35.96 82.0463 35.92 81.8863 35.92C81.6863 35.92 81.5663 35.94 81.5263 35.98L80.9863 36.58C80.9463 36.62 80.8663 36.66 80.7463 36.7C80.6663 36.74 80.5663 36.78 80.4463 36.82C80.3663 36.94 80.2063 37.1 79.9663 37.3L79.3063 37.54C79.1463 37.54 78.9663 37.54 78.7663 37.54C78.5663 37.54 78.3263 37.56 78.0463 37.6C78.0063 37.64 77.9063 37.7 77.7463 37.78C77.5863 37.86 77.4863 37.88 77.4463 37.84ZM76.1863 6.52C76.2663 6.56 76.3463 6.54 76.4263 6.46C76.5063 6.38 76.5063 6.3 76.4263 6.22C76.3463 6.22 76.2663 6.32 76.1863 6.52ZM75.0463 8.5C75.1663 8.5 75.4263 8.36 75.8262 8.08C75.5863 8.04 75.4063 7.96 75.2863 7.84L74.9263 7.54C74.9663 7.86 74.9863 8.1 74.9863 8.26C75.0263 8.42 75.0463 8.5 75.0463 8.5ZM86.2063 8.56C86.2863 8.6 86.4063 8.54 86.5663 8.38C86.5263 8.34 86.4663 8.32 86.3863 8.32C86.2663 8.32 86.2063 8.4 86.2063 8.56ZM85.0063 10.06C85.0463 9.98 85.0263 9.9 84.9463 9.82C84.9063 9.74 84.8263 9.76 84.7063 9.88C84.7063 10 84.8063 10.06 85.0063 10.06ZM84.4663 13H84.5263C84.7663 13 84.9663 12.88 85.1263 12.64C85.3663 12.64 85.5663 12.52 85.7263 12.28L84.8863 11.38L84.4663 11.8C84.5463 12.04 84.5463 12.44 84.4663 13ZM75.4663 13.18L75.5263 12.88H75.4062V13.18H75.4663ZM75.5263 13.48L75.5863 13.36L75.5263 13.3L75.4062 13.48H75.5263ZM81.5863 20.08C81.7063 19.92 81.7263 19.78 81.6463 19.66L81.2263 19.6V20.02L81.5863 20.08ZM81.5263 20.68C81.5663 20.64 81.6663 20.62 81.8263 20.62V20.5C81.8263 20.46 81.8063 20.44 81.7663 20.44C81.7663 20.44 81.7663 20.42 81.7663 20.38C81.6063 20.42 81.5263 20.52 81.5263 20.68ZM73.6063 21.58C73.6463 21.54 73.6663 21.46 73.6663 21.34C73.6263 21.3 73.5463 21.28 73.4263 21.28C73.5063 21.44 73.5663 21.54 73.6063 21.58ZM72.8863 23.86L72.9463 23.56C72.8263 23.44 72.7263 23.2 72.6463 22.84C72.6463 22.6 72.5063 22.48 72.2263 22.48H71.9863L71.9263 22.72C71.9263 22.76 71.9263 22.8 71.9263 22.84C71.9663 22.84 71.9863 22.86 71.9863 22.9L72.0463 23.08C72.0463 23.16 72.0463 23.26 72.0463 23.38C72.0463 23.46 72.0663 23.58 72.1063 23.74C72.1463 23.7 72.2663 23.68 72.4663 23.68L72.8863 23.86ZM73.8463 24.58C73.9263 24.5 73.9663 24.44 73.9663 24.4C73.9663 24.28 73.8663 24.22 73.6663 24.22C73.6263 24.34 73.6863 24.46 73.8463 24.58ZM82.7263 26.5L82.9663 26.38L82.8463 26.2C82.8063 26.24 82.7863 26.28 82.7863 26.32C82.7863 26.36 82.7663 26.42 82.7263 26.5ZM81.4063 30.82C81.2863 30.94 81.2063 31.06 81.1663 31.18C81.1663 31.26 81.2463 31.38 81.4063 31.54V30.82ZM70.1863 31.48C70.3063 31.52 70.4263 31.46 70.5463 31.3C70.4663 31.22 70.4063 31.18 70.3663 31.18C70.2463 31.18 70.1863 31.28 70.1863 31.48ZM79.7263 32.2V31.96C79.6863 31.92 79.6063 31.9 79.4863 31.9L79.4263 32.02C79.4263 32.1 79.4463 32.16 79.4863 32.2H79.7263ZM82.9062 32.2C82.9463 32.12 82.9263 32.04 82.8463 31.96C82.7663 31.88 82.6863 31.88 82.6063 31.96C82.6063 32.04 82.7063 32.12 82.9062 32.2ZM70.9663 33.16C71.1663 33.08 71.2863 32.94 71.3263 32.74C71.3663 32.66 71.3463 32.58 71.2663 32.5H71.0863L70.9663 33.16ZM79.9663 32.86C79.9663 32.7 79.9263 32.62 79.8463 32.62L79.6063 32.56L79.4863 32.8L79.9663 32.86ZM79.0063 35.5C79.1663 35.5 79.3063 35.38 79.4263 35.14L79.3063 35.02C79.0263 35.06 78.8463 35.12 78.7663 35.2C78.8063 35.24 78.8463 35.28 78.8863 35.32C78.9263 35.36 78.9663 35.42 79.0063 35.5ZM96.6228 37.78C96.5428 37.78 96.5228 37.78 96.5628 37.78C96.5228 37.78 96.4428 37.74 96.3228 37.66L96.0228 37.54C95.9428 37.58 95.8428 37.6 95.7228 37.6C95.6428 37.6 95.5428 37.62 95.4228 37.66L94.5828 37.18C94.4628 36.9 94.3028 36.76 94.1028 36.76C94.0628 36.72 94.0228 36.72 93.9828 36.76C93.9428 36.8 93.8628 36.82 93.7428 36.82C93.7428 36.82 93.5428 36.66 93.1428 36.34L92.6628 36.16C92.5428 36.04 92.4028 35.9 92.2428 35.74C92.1228 35.58 91.9628 35.4 91.7628 35.2L91.2828 34.84V34.72C91.2828 34.56 91.1828 34.32 90.9828 34C90.7828 33.8 90.6228 33.64 90.5028 33.52C90.4228 33.36 90.3628 33.26 90.3228 33.22V32.5C90.5228 32.62 90.6428 32.6 90.6828 32.44C90.7628 32.32 90.6828 32.2 90.4428 32.08C90.2828 31.96 90.2028 31.86 90.2028 31.78V31.06C90.2028 30.94 90.2028 30.82 90.2028 30.7C90.2028 30.58 90.1828 30.46 90.1428 30.34C90.1028 30.14 90.0628 29.96 90.0228 29.8C90.0228 29.6 90.0428 29.42 90.0828 29.26L90.2028 28.66C90.1628 28.42 90.1428 28.18 90.1428 27.94C90.1428 27.66 90.1428 27.38 90.1428 27.1C90.1428 26.94 90.2028 26.74 90.3228 26.5L90.5028 26.02C90.4628 25.7 90.4228 25.36 90.3828 25C90.3428 24.6 90.3028 24.2 90.2628 23.8C90.2628 23.68 90.4228 23.3 90.7428 22.66C90.8228 22.62 90.9028 22.58 90.9828 22.54C91.0628 22.5 91.1428 22.44 91.2228 22.36C91.2228 22.32 91.0428 22.18 90.6828 21.94L90.5028 20.68C90.5028 20.48 90.5828 20.36 90.7428 20.32C90.8628 20.24 90.9028 20.1 90.8628 19.9L91.6428 19.36C91.6028 19.2 91.4628 19.1 91.2228 19.06C91.1828 19.06 91.0428 19.1 90.8028 19.18C90.6828 19.1 90.6228 19.02 90.6228 18.94C90.6228 18.7 90.7428 18.5 90.9828 18.34C91.2228 18.14 91.3428 18.02 91.3428 17.98L91.0428 16.96C91.0428 16.96 91.2028 16.68 91.5228 16.12C91.8028 16.08 91.9428 16 91.9428 15.88C91.9428 15.8 91.8828 15.7 91.7628 15.58C91.6028 15.46 91.5228 15.36 91.5228 15.28C91.5228 15.24 91.5628 15.18 91.6428 15.1C91.7628 14.86 91.8828 14.42 92.0028 13.78L92.3628 13.42L92.5428 12.82C92.7828 12.74 93.0628 12.62 93.3828 12.46L94.1628 11.5C94.5628 10.98 94.9028 10.74 95.1828 10.78L95.3628 10.84C95.3628 10.8 95.5228 10.74 95.8428 10.66C96.8028 10.34 97.3428 10.2 97.4628 10.24L97.7628 10.3C98.0028 10.14 98.1828 10 98.3028 9.88L98.6028 9.94C98.6828 9.94 98.7428 9.96 98.7828 10C98.8228 10.04 98.8628 10.06 98.9028 10.06L99.3828 10L99.9228 10.48C99.9228 10.48 100.043 10.44 100.283 10.36L100.583 10.24C100.743 10.32 100.923 10.4 101.123 10.48C101.323 10.56 101.523 10.64 101.723 10.72C101.923 10.64 102.203 10.64 102.563 10.72L102.503 11.02V11.08C102.503 11.32 102.723 11.44 103.163 11.44H103.643C103.643 11.44 103.903 11.92 104.423 12.88L104.783 12.76C104.943 12.76 105.043 12.82 105.083 12.94L105.743 15.22C105.703 15.3 105.683 15.44 105.683 15.64C105.683 15.8 105.683 15.98 105.683 16.18L105.863 16.6C105.943 16.84 105.983 16.96 105.983 16.96L105.863 17.14C105.823 17.18 105.803 17.24 105.803 17.32V18.22C105.763 18.26 105.723 18.34 105.683 18.46C105.643 18.54 105.603 18.66 105.563 18.82C105.323 18.86 105.203 18.94 105.203 19.06C105.203 19.18 105.383 19.4 105.743 19.72C106.063 20.04 106.223 20.24 106.223 20.32C106.223 20.4 106.123 20.44 105.923 20.44L105.743 21.28C105.703 21.32 105.643 21.44 105.563 21.64C105.563 21.88 105.683 22.4 105.923 23.2C105.763 23.28 105.643 23.38 105.563 23.5C105.563 23.5 105.563 23.66 105.563 23.98L105.623 24.58C105.623 24.62 105.623 24.7 105.623 24.82C105.623 24.9 105.603 25.02 105.563 25.18L105.503 25.78H105.203C104.883 25.78 104.623 25.62 104.423 25.3C104.263 25.02 104.123 24.88 104.003 24.88C103.963 24.88 103.843 25 103.643 25.24C103.403 25.48 103.243 25.6 103.163 25.6L102.503 25.54C102.303 25.5 102.143 25.5 102.023 25.54C101.903 25.54 101.823 25.54 101.783 25.54L100.523 25C100.243 25.24 99.9228 25.36 99.5628 25.36C99.1228 25.36 98.7428 25.22 98.4228 24.94C98.3428 25.02 98.3028 25.08 98.3028 25.12H97.4028C97.3628 25.12 97.3428 25.12 97.3428 25.12C97.3428 25.08 97.3228 25.06 97.2828 25.06H97.0428C96.6828 25.06 96.3828 25.28 96.1428 25.72V25.96C96.1028 26.04 96.0428 26.16 95.9628 26.32C95.9228 26.44 95.8628 26.58 95.7828 26.74C95.7828 26.78 95.8228 26.84 95.9028 26.92L96.0228 27.16V27.28C96.0228 27.32 96.0228 27.4 96.0228 27.52C96.0228 27.6 96.0028 27.72 95.9628 27.88C96.0028 28 96.0228 28.2 96.0228 28.48C96.0228 28.64 95.9228 28.78 95.7228 28.9L95.6028 30.88C95.8428 31.08 95.9428 31.42 95.9028 31.9H96.6228C96.8628 31.9 97.0428 31.98 97.1628 32.14C97.2828 32.3 97.3628 32.38 97.4028 32.38L97.8228 32.2L98.2428 32.5C98.3628 32.5 98.4428 32.44 98.4828 32.32L98.8428 31.48V30.58L98.9028 29.68C98.9428 29.56 98.9628 29.46 98.9628 29.38C99.0028 29.26 99.0228 29.18 99.0228 29.14L98.9628 28.96C99.0428 28.8 99.0828 28.68 99.0828 28.6C99.0828 28.48 99.0828 28.4 99.0828 28.36L98.9628 27.82C99.1228 27.42 99.3228 27.22 99.5628 27.22C99.8828 27.38 100.323 27.52 100.883 27.64L101.183 27.52C101.303 27.48 101.403 27.46 101.483 27.46C101.563 27.46 101.703 27.62 101.903 27.94C102.343 27.78 102.563 27.7 102.563 27.7L103.043 28H103.163C103.643 28 104.103 27.8 104.543 27.4L105.563 28.36C105.363 28.72 105.143 29.18 104.903 29.74C104.863 29.94 104.803 30.18 104.723 30.46C104.683 30.74 104.603 31.04 104.483 31.36C104.203 31.48 104.063 31.64 104.063 31.84C104.063 31.92 104.123 32.06 104.243 32.26C104.363 32.5 104.423 32.66 104.423 32.74L104.303 32.92C104.383 33.12 104.363 33.3 104.243 33.46L104.063 33.76C104.103 33.8 104.123 33.88 104.123 34C104.123 34.36 103.863 34.66 103.343 34.9L103.223 35.02C103.263 35.06 103.283 35.12 103.283 35.2C103.283 35.48 103.123 35.66 102.803 35.74C102.363 35.86 102.103 35.96 102.023 36.04C101.943 36.16 101.823 36.3 101.663 36.46C101.503 36.62 101.323 36.8 101.123 37C100.323 37.52 99.7628 37.74 99.4428 37.66L98.7228 37.48C98.5228 37.48 98.3228 37.54 98.1228 37.66C97.9228 37.78 97.7628 37.82 97.6428 37.78L97.4028 37.72H97.1028C96.9428 37.72 96.8228 37.72 96.7428 37.72C96.6628 37.76 96.6028 37.78 96.5628 37.78C96.6028 37.78 96.6228 37.78 96.6228 37.78ZM97.8228 12.52L97.9428 12.28L97.7628 12.16C97.7628 12.28 97.7828 12.4 97.8228 12.52ZM102.023 14.56C102.223 14.56 102.343 14.44 102.383 14.2L102.323 13.42H102.203C102.083 13.42 102.023 13.32 102.023 13.12C101.943 12.92 101.843 12.82 101.723 12.82C101.563 12.74 101.443 12.8 101.363 13C101.323 13.04 101.303 13.1 101.303 13.18C101.343 13.26 101.363 13.34 101.363 13.42L101.423 13.84L101.243 14.02L102.023 14.56ZM96.7428 15.34C97.0628 15.22 97.0628 15.08 96.7428 14.92C96.6628 15 96.6628 15.14 96.7428 15.34ZM104.543 15.28L104.423 15.04L104.243 15.16L104.543 15.28ZM96.5628 20.74L97.1628 20.56L98.0028 20.32C98.2828 20.32 98.5828 20.3 98.9028 20.26C99.2228 20.18 99.5828 20.1 99.9828 20.02L100.163 19.3C100.203 19.26 100.303 19.2 100.463 19.12C100.303 18.96 100.163 18.8 100.043 18.64C99.9628 18.48 99.9428 18.32 99.9828 18.16L100.043 17.74V17.38C100.043 17.02 99.8828 16.72 99.5628 16.48C99.6028 16.36 99.6228 16.2 99.6228 16C99.6228 15.68 99.2628 15.5 98.5428 15.46C98.4228 15.46 98.2028 15.58 97.8828 15.82L96.9228 16.48C97.0828 16.6 97.1028 16.76 96.9828 16.96C96.9428 17.12 96.8028 17.2 96.5628 17.2V17.38C96.6828 17.3 96.8028 17.36 96.9228 17.56C97.0028 17.72 97.0228 17.82 96.9828 17.86L96.8628 19.66C96.8628 19.78 96.8628 19.88 96.8628 19.96C96.9028 20.04 96.9228 20.08 96.9228 20.08C96.9228 20.2 96.8628 20.26 96.7428 20.26C96.6228 20.18 96.5228 20.08 96.4428 19.96L96.2628 20.08L96.2028 20.44L96.5628 20.74ZM100.763 17.08C100.843 17.2 100.963 17.2 101.123 17.08C101.003 16.72 100.883 16.72 100.763 17.08ZM96.9228 20.02C96.9228 20.1 96.9228 20.12 96.9228 20.08C96.9228 20.08 96.9228 20.06 96.9228 20.02ZM91.6428 24.76C91.7628 24.68 91.9228 24.46 92.1228 24.1L92.0628 23.92H91.9428C91.7428 23.92 91.4828 24.02 91.1628 24.22C91.2828 24.42 91.4428 24.6 91.6428 24.76ZM103.163 24.34C103.203 24.22 103.183 24.12 103.103 24.04C103.063 24 102.963 24.02 102.803 24.1C102.803 24.18 102.923 24.26 103.163 24.34ZM92.7828 32.38L93.2628 32.14L93.2028 31.9L92.9028 31.84L92.7828 31.96V31.9L92.7228 31.66L92.5428 31.6L92.4228 32.26L92.7828 32.38ZM97.3428 33.34C97.3828 33.26 97.3628 33.18 97.2828 33.1C97.2028 33.02 97.1228 33.02 97.0428 33.1C97.0428 33.18 97.1428 33.26 97.3428 33.34ZM114.845 37.78C114.765 37.78 114.745 37.78 114.785 37.78C114.745 37.78 114.665 37.74 114.545 37.66L114.245 37.54C114.165 37.58 114.065 37.6 113.945 37.6C113.865 37.6 113.765 37.62 113.645 37.66L112.805 37.18C112.685 36.9 112.525 36.76 112.325 36.76C112.285 36.72 112.245 36.72 112.205 36.76C112.165 36.8 112.085 36.82 111.965 36.82C111.965 36.82 111.765 36.66 111.365 36.34L110.885 36.16C110.765 36.04 110.625 35.9 110.465 35.74C110.345 35.58 110.185 35.4 109.985 35.2L109.505 34.84V34.72C109.505 34.56 109.405 34.32 109.205 34C109.005 33.8 108.845 33.64 108.725 33.52C108.645 33.36 108.585 33.26 108.545 33.22V32.5C108.745 32.62 108.865 32.6 108.905 32.44C108.985 32.32 108.905 32.2 108.665 32.08C108.505 31.96 108.425 31.86 108.425 31.78V31.06C108.425 30.94 108.425 30.82 108.425 30.7C108.425 30.58 108.405 30.46 108.365 30.34C108.325 30.14 108.285 29.96 108.245 29.8C108.245 29.6 108.265 29.42 108.305 29.26L108.425 28.66C108.385 28.42 108.365 28.18 108.365 27.94C108.365 27.66 108.365 27.38 108.365 27.1C108.365 26.94 108.425 26.74 108.545 26.5L108.725 26.02C108.685 25.7 108.645 25.36 108.605 25C108.565 24.6 108.525 24.2 108.485 23.8C108.485 23.68 108.645 23.3 108.965 22.66C109.045 22.62 109.125 22.58 109.205 22.54C109.285 22.5 109.365 22.44 109.445 22.36C109.445 22.32 109.265 22.18 108.905 21.94L108.725 20.68C108.725 20.48 108.805 20.36 108.965 20.32C109.085 20.24 109.125 20.1 109.085 19.9L109.865 19.36C109.825 19.2 109.685 19.1 109.445 19.06C109.405 19.06 109.265 19.1 109.025 19.18C108.905 19.1 108.845 19.02 108.845 18.94C108.845 18.7 108.965 18.5 109.205 18.34C109.445 18.14 109.565 18.02 109.565 17.98L109.265 16.96C109.265 16.96 109.425 16.68 109.745 16.12C110.025 16.08 110.165 16 110.165 15.88C110.165 15.8 110.105 15.7 109.985 15.58C109.825 15.46 109.745 15.36 109.745 15.28C109.745 15.24 109.785 15.18 109.865 15.1C109.985 14.86 110.105 14.42 110.225 13.78L110.585 13.42L110.765 12.82C111.005 12.74 111.285 12.62 111.605 12.46L112.385 11.5C112.785 10.98 113.125 10.74 113.405 10.78L113.585 10.84C113.585 10.8 113.745 10.74 114.065 10.66C115.025 10.34 115.565 10.2 115.685 10.24L115.985 10.3C116.225 10.14 116.405 10 116.525 9.88L116.825 9.94C116.905 9.94 116.965 9.96 117.005 10C117.045 10.04 117.085 10.06 117.125 10.06L117.605 10L118.145 10.48C118.145 10.48 118.265 10.44 118.505 10.36L118.805 10.24C118.965 10.32 119.145 10.4 119.345 10.48C119.545 10.56 119.745 10.64 119.945 10.72C120.145 10.64 120.425 10.64 120.785 10.72L120.725 11.02V11.08C120.725 11.32 120.945 11.44 121.385 11.44H121.865C121.865 11.44 122.125 11.92 122.645 12.88L123.005 12.76C123.165 12.76 123.265 12.82 123.305 12.94L123.965 15.22C123.925 15.3 123.905 15.44 123.905 15.64C123.905 15.8 123.905 15.98 123.905 16.18L124.085 16.6C124.165 16.84 124.205 16.96 124.205 16.96L124.085 17.14C124.045 17.18 124.025 17.24 124.025 17.32V18.22C123.985 18.26 123.945 18.34 123.905 18.46C123.865 18.54 123.825 18.66 123.785 18.82C123.545 18.86 123.425 18.94 123.425 19.06C123.425 19.18 123.605 19.4 123.965 19.72C124.285 20.04 124.445 20.24 124.445 20.32C124.445 20.4 124.345 20.44 124.145 20.44L123.965 21.28C123.925 21.32 123.865 21.44 123.785 21.64C123.785 21.88 123.905 22.4 124.145 23.2C123.985 23.28 123.865 23.38 123.785 23.5C123.785 23.5 123.785 23.66 123.785 23.98L123.845 24.58C123.845 24.62 123.845 24.7 123.845 24.82C123.845 24.9 123.825 25.02 123.785 25.18L123.725 25.78H123.425C123.105 25.78 122.845 25.62 122.645 25.3C122.485 25.02 122.345 24.88 122.225 24.88C122.185 24.88 122.065 25 121.865 25.24C121.625 25.48 121.465 25.6 121.385 25.6L120.725 25.54C120.525 25.5 120.365 25.5 120.245 25.54C120.125 25.54 120.045 25.54 120.005 25.54L118.745 25C118.465 25.24 118.145 25.36 117.785 25.36C117.345 25.36 116.965 25.22 116.645 24.94C116.565 25.02 116.525 25.08 116.525 25.12H115.625C115.585 25.12 115.565 25.12 115.565 25.12C115.565 25.08 115.545 25.06 115.505 25.06H115.265C114.905 25.06 114.605 25.28 114.365 25.72V25.96C114.325 26.04 114.265 26.16 114.185 26.32C114.145 26.44 114.085 26.58 114.005 26.74C114.005 26.78 114.045 26.84 114.125 26.92L114.245 27.16V27.28C114.245 27.32 114.245 27.4 114.245 27.52C114.245 27.6 114.225 27.72 114.185 27.88C114.225 28 114.245 28.2 114.245 28.48C114.245 28.64 114.145 28.78 113.945 28.9L113.825 30.88C114.065 31.08 114.165 31.42 114.125 31.9H114.845C115.085 31.9 115.265 31.98 115.385 32.14C115.505 32.3 115.585 32.38 115.625 32.38L116.045 32.2L116.465 32.5C116.585 32.5 116.665 32.44 116.705 32.32L117.065 31.48V30.58L117.125 29.68C117.165 29.56 117.185 29.46 117.185 29.38C117.225 29.26 117.245 29.18 117.245 29.14L117.185 28.96C117.265 28.8 117.305 28.68 117.305 28.6C117.305 28.48 117.305 28.4 117.305 28.36L117.185 27.82C117.345 27.42 117.545 27.22 117.785 27.22C118.105 27.38 118.545 27.52 119.105 27.64L119.405 27.52C119.525 27.48 119.625 27.46 119.705 27.46C119.785 27.46 119.925 27.62 120.125 27.94C120.565 27.78 120.785 27.7 120.785 27.7L121.265 28H121.385C121.865 28 122.325 27.8 122.765 27.4L123.785 28.36C123.585 28.72 123.365 29.18 123.125 29.74C123.085 29.94 123.025 30.18 122.945 30.46C122.905 30.74 122.825 31.04 122.705 31.36C122.425 31.48 122.285 31.64 122.285 31.84C122.285 31.92 122.345 32.06 122.465 32.26C122.585 32.5 122.645 32.66 122.645 32.74L122.525 32.92C122.605 33.12 122.585 33.3 122.465 33.46L122.285 33.76C122.325 33.8 122.345 33.88 122.345 34C122.345 34.36 122.085 34.66 121.565 34.9L121.445 35.02C121.485 35.06 121.505 35.12 121.505 35.2C121.505 35.48 121.345 35.66 121.025 35.74C120.585 35.86 120.325 35.96 120.245 36.04C120.165 36.16 120.045 36.3 119.885 36.46C119.725 36.62 119.545 36.8 119.345 37C118.545 37.52 117.985 37.74 117.665 37.66L116.945 37.48C116.745 37.48 116.545 37.54 116.345 37.66C116.145 37.78 115.985 37.82 115.865 37.78L115.625 37.72H115.325C115.165 37.72 115.045 37.72 114.965 37.72C114.885 37.76 114.825 37.78 114.785 37.78C114.825 37.78 114.845 37.78 114.845 37.78ZM116.045 12.52L116.165 12.28L115.985 12.16C115.985 12.28 116.005 12.4 116.045 12.52ZM120.245 14.56C120.445 14.56 120.565 14.44 120.605 14.2L120.545 13.42H120.425C120.305 13.42 120.245 13.32 120.245 13.12C120.165 12.92 120.065 12.82 119.945 12.82C119.785 12.74 119.665 12.8 119.585 13C119.545 13.04 119.525 13.1 119.525 13.18C119.565 13.26 119.585 13.34 119.585 13.42L119.645 13.84L119.465 14.02L120.245 14.56ZM114.965 15.34C115.285 15.22 115.285 15.08 114.965 14.92C114.885 15 114.885 15.14 114.965 15.34ZM122.765 15.28L122.645 15.04L122.465 15.16L122.765 15.28ZM114.785 20.74L115.385 20.56L116.225 20.32C116.505 20.32 116.805 20.3 117.125 20.26C117.445 20.18 117.805 20.1 118.205 20.02L118.385 19.3C118.425 19.26 118.525 19.2 118.685 19.12C118.525 18.96 118.385 18.8 118.265 18.64C118.185 18.48 118.165 18.32 118.205 18.16L118.265 17.74V17.38C118.265 17.02 118.105 16.72 117.785 16.48C117.825 16.36 117.845 16.2 117.845 16C117.845 15.68 117.485 15.5 116.765 15.46C116.645 15.46 116.425 15.58 116.105 15.82L115.145 16.48C115.305 16.6 115.325 16.76 115.205 16.96C115.165 17.12 115.025 17.2 114.785 17.2V17.38C114.905 17.3 115.025 17.36 115.145 17.56C115.225 17.72 115.245 17.82 115.205 17.86L115.085 19.66C115.085 19.78 115.085 19.88 115.085 19.96C115.125 20.04 115.145 20.08 115.145 20.08C115.145 20.2 115.085 20.26 114.965 20.26C114.845 20.18 114.745 20.08 114.665 19.96L114.485 20.08L114.425 20.44L114.785 20.74ZM118.985 17.08C119.065 17.2 119.185 17.2 119.345 17.08C119.225 16.72 119.105 16.72 118.985 17.08ZM115.145 20.02C115.145 20.1 115.145 20.12 115.145 20.08C115.145 20.08 115.145 20.06 115.145 20.02ZM109.865 24.76C109.985 24.68 110.145 24.46 110.345 24.1L110.285 23.92H110.165C109.965 23.92 109.705 24.02 109.385 24.22C109.505 24.42 109.665 24.6 109.865 24.76ZM121.385 24.34C121.425 24.22 121.405 24.12 121.325 24.04C121.285 24 121.185 24.02 121.025 24.1C121.025 24.18 121.145 24.26 121.385 24.34ZM111.005 32.38L111.485 32.14L111.425 31.9L111.125 31.84L111.005 31.96V31.9L110.945 31.66L110.765 31.6L110.645 32.26L111.005 32.38ZM115.565 33.34C115.605 33.26 115.585 33.18 115.505 33.1C115.425 33.02 115.345 33.02 115.265 33.1C115.265 33.18 115.365 33.26 115.565 33.34ZM142.188 38.32C141.668 38.2 141.288 38.14 141.048 38.14C140.848 38.18 140.728 38.22 140.688 38.26C140.648 38.22 140.508 38.16 140.268 38.08C140.028 38.12 139.768 38.14 139.488 38.14C139.248 38.14 138.988 38.14 138.708 38.14L138.528 38.08C138.448 38.04 138.348 38.02 138.228 38.02C138.348 38.02 138.188 38.08 137.748 38.2H137.508C137.548 38 137.448 37.86 137.208 37.78L136.968 37.9C136.848 37.94 136.748 37.96 136.668 37.96C136.548 37.96 136.348 37.88 136.068 37.72L135.648 35.86C135.688 35.82 135.708 35.72 135.708 35.56L135.648 34.9C135.648 34.86 135.728 34.76 135.888 34.6C136.008 34.4 136.068 34.3 136.068 34.3C135.988 34.22 135.888 34.14 135.768 34.06C135.648 33.94 135.528 33.8 135.408 33.64L135.468 33.16C135.548 33.08 135.608 33.04 135.648 33.04L136.068 33.22C136.228 33.22 136.408 33.06 136.608 32.74C136.728 32.5 136.788 32.3 136.788 32.14V31.96C136.788 31.6 136.648 31.4 136.368 31.36C136.208 31.36 136.088 31.46 136.008 31.66V32.14H135.708C135.668 32.34 135.688 32.48 135.768 32.56C135.688 32.52 135.588 32.48 135.468 32.44C135.348 32.4 135.208 32.34 135.048 32.26C134.928 32.06 134.868 31.94 134.868 31.9C134.868 31.82 134.868 31.74 134.868 31.66C134.908 31.58 134.928 31.5 134.928 31.42C134.928 31.1 134.868 30.7 134.748 30.22V29.74C134.748 29.58 134.648 29.44 134.448 29.32C134.528 28.4 134.528 27.7 134.448 27.22C134.368 27.02 134.228 26.9 134.028 26.86L133.368 26.68C133.248 26.72 133.188 26.82 133.188 26.98C133.148 27.18 133.108 27.42 133.068 27.7C133.028 27.94 132.968 28.22 132.888 28.54C132.768 28.66 132.688 28.78 132.648 28.9L132.708 29.08C132.748 29.12 132.768 29.18 132.768 29.26L132.708 30.34C132.708 30.42 132.728 30.52 132.768 30.64L132.528 31.18C132.608 31.46 132.608 31.94 132.528 32.62L132.348 33.22L132.468 34.12L132.528 35.02C132.528 35.18 132.408 35.3 132.168 35.38C132.248 35.46 132.248 35.6 132.168 35.8C132.048 35.84 131.928 36.02 131.808 36.34C131.808 36.54 131.888 36.72 132.048 36.88C132.208 37.04 132.288 37.22 132.288 37.42C131.928 37.58 131.608 37.66 131.328 37.66L130.428 37.6C130.268 37.44 130.028 37.3 129.708 37.18H129.588C129.548 37.18 129.488 37.18 129.408 37.18C129.328 37.22 129.228 37.26 129.108 37.3L129.048 37.48C128.968 37.56 128.928 37.6 128.928 37.6L128.328 37.54C128.288 37.46 128.148 37.3 127.908 37.06C127.868 37.06 127.768 37.1 127.608 37.18C127.488 37.22 127.368 37.24 127.248 37.24L126.888 37.12C126.808 37.16 126.708 37.2 126.588 37.24C126.508 37.32 126.388 37.38 126.228 37.42C125.988 37.34 125.868 37.2 125.868 37L126.168 35.98C126.128 35.74 126.088 35.52 126.048 35.32C126.048 35.12 126.068 34.94 126.108 34.78C126.108 34.66 126.188 34.5 126.348 34.3C126.508 34.1 126.588 33.96 126.588 33.88C126.668 33.76 126.588 33.66 126.348 33.58V33.4L126.588 32.62C126.708 32.22 126.708 31.96 126.588 31.84V31.6C126.828 31.6 127.088 31.52 127.368 31.36C127.368 31.28 127.408 31.12 127.488 30.88L127.608 30.46L127.428 30.28C127.388 30.28 127.328 30.24 127.248 30.16C127.088 30.08 127.008 30.04 127.008 30.04C126.848 29.96 126.728 29.96 126.648 30.04V29.8L126.948 29.5C126.988 29.46 127.008 29.3 127.008 29.02L126.888 26.98C126.968 26.86 127.048 26.74 127.128 26.62C127.208 26.46 127.288 26.3 127.368 26.14L127.308 25.9C127.228 25.82 127.188 25.76 127.188 25.72L127.248 25.3C127.208 25.22 127.188 25.14 127.188 25.06C127.188 24.94 127.168 24.8 127.128 24.64C127.168 24.6 127.188 24.54 127.188 24.46C127.188 24.38 127.208 24.28 127.248 24.16C127.248 24.04 127.228 23.92 127.188 23.8C127.108 23.56 127.068 23.44 127.068 23.44L127.608 22.72C127.448 22.56 127.368 22.42 127.368 22.3L127.548 21.94C127.588 21.94 127.688 21.98 127.848 22.06L127.968 21.94C127.808 21.86 127.648 21.74 127.488 21.58V21.28C127.768 21.2 127.928 21.1 127.968 20.98L128.148 20.5C128.108 20.46 128.088 20.38 128.088 20.26H127.548V20.56H127.368L127.428 19.3C127.428 19.22 127.568 18.98 127.848 18.58L128.268 17.92C128.268 17.92 128.128 17.48 127.848 16.6V16.42C127.848 16.3 127.828 16.16 127.788 16C127.788 15.84 127.768 15.66 127.728 15.46C127.768 15.42 127.808 15.38 127.848 15.34C127.928 15.3 127.988 15.26 128.028 15.22L127.848 14.74C127.888 14.66 127.928 14.58 127.968 14.5C128.048 14.42 128.108 14.3 128.148 14.14C128.148 13.98 128.068 13.82 127.908 13.66C127.908 13.58 127.908 13.48 127.908 13.36C127.948 13.24 127.988 13.1 128.028 12.94C128.108 12.86 128.168 12.74 128.208 12.58L128.148 10.96C128.188 10.92 128.228 10.86 128.268 10.78C128.348 10.7 128.428 10.62 128.508 10.54L128.628 9.76C128.628 9.68 128.608 9.62 128.568 9.58L128.448 9.4C128.448 9.24 128.448 9.04 128.448 8.8C128.488 8.52 128.528 8.22 128.568 7.9L128.688 7.6C128.688 7.6 128.668 7.58 128.628 7.54C128.628 7.5 128.608 7.44 128.568 7.36C128.448 7.24 128.408 7.16 128.448 7.12C128.448 7.08 128.508 6.86 128.628 6.46C128.748 6.02 128.828 5.78 128.868 5.74C128.828 5.58 128.808 5.38 128.808 5.14C128.808 4.9 128.808 4.64 128.808 4.36L128.928 2.02C128.928 1.94 128.908 1.88 128.868 1.84C128.828 1.8 128.808 1.72 128.808 1.6C128.888 1.28 129.108 1.12 129.468 1.12L130.548 1.48C130.548 1.48 130.568 1.46 130.608 1.42C130.688 1.38 130.768 1.32 130.848 1.24C131.048 1.48 131.288 1.6 131.568 1.6C131.648 1.56 131.728 1.52 131.808 1.48C131.888 1.44 131.988 1.4 132.108 1.36C132.268 1.36 132.448 1.46 132.648 1.66C132.688 1.7 132.728 1.74 132.768 1.78C132.808 1.82 132.868 1.88 132.948 1.96C133.228 1.96 133.448 1.84 133.608 1.6L133.848 1.48C134.008 1.4 134.108 1.36 134.148 1.36L134.628 1.48C134.668 1.48 134.728 1.48 134.808 1.48C134.888 1.48 134.988 1.46 135.108 1.42L134.988 3.16C134.988 3.2 134.928 3.28 134.808 3.4V3.76C134.648 4 134.548 4.18 134.508 4.3L134.748 5.26L134.688 6.04C134.608 6.04 134.448 6.08 134.208 6.16C134.208 6.2 134.268 6.4 134.388 6.76C134.508 7.08 134.568 7.24 134.568 7.24C134.568 7.28 134.608 7.38 134.688 7.54L134.748 7.84C134.748 7.88 134.688 7.96 134.568 8.08C134.448 8.24 134.388 8.34 134.388 8.38L134.568 9.22C134.528 9.66 134.408 9.98 134.208 10.18L134.268 10.42L134.148 12.16C134.068 12.16 134.008 12.24 133.968 12.4L134.088 12.94C134.128 13.1 134.148 13.22 134.148 13.3C134.148 13.38 134.148 13.44 134.148 13.48L133.968 13.72C133.928 13.84 133.908 13.98 133.908 14.14C133.908 14.26 133.888 14.4 133.848 14.56L133.908 14.62V16.24L133.728 16.72V16.96C133.728 17.52 133.868 17.82 134.148 17.86C134.308 17.86 134.468 17.72 134.628 17.44C134.668 17.36 134.708 17.26 134.748 17.14C134.788 17.02 134.848 16.88 134.928 16.72C134.968 16.68 135.008 16.62 135.048 16.54C135.128 16.46 135.208 16.38 135.288 16.3C135.448 16.3 135.548 16.24 135.588 16.12L135.888 14.68C135.968 14.56 136.068 14.42 136.188 14.26C136.308 14.1 136.428 13.92 136.548 13.72L136.608 13.48C137.048 13.4 137.228 13.22 137.148 12.94L136.968 12.34C137.008 12.22 137.108 12.12 137.268 12.04C137.468 11.96 137.608 11.88 137.688 11.8C137.568 11.44 137.548 11.22 137.628 11.14H137.868C137.948 11.26 138.068 11.38 138.228 11.5H138.408C138.728 11.5 138.988 11.4 139.188 11.2L139.848 11.62C139.928 11.62 140.048 11.5 140.208 11.26H140.388C140.428 11.38 140.568 11.52 140.808 11.68L141.288 11.5C141.368 11.54 141.548 11.6 141.828 11.68C142.108 11.72 142.288 11.74 142.368 11.74L142.668 11.5C142.868 11.38 143.008 11.32 143.088 11.32L143.928 11.74C144.048 11.9 144.108 12.04 144.108 12.16C143.988 12.28 143.828 12.44 143.628 12.64C143.468 12.8 143.288 13.02 143.088 13.3C143.008 13.42 142.928 13.56 142.848 13.72C142.768 13.88 142.708 14.06 142.668 14.26C142.588 14.46 142.508 14.56 142.428 14.56L142.008 14.38C141.888 14.38 141.808 14.46 141.768 14.62C141.728 14.7 141.708 14.82 141.708 14.98C141.708 15.02 141.708 15.08 141.708 15.16C141.748 15.2 141.768 15.26 141.768 15.34C141.768 15.58 141.688 15.86 141.528 16.18C141.448 16.26 141.348 16.36 141.228 16.48C141.148 16.6 141.048 16.74 140.928 16.9C140.888 16.94 140.808 16.98 140.688 17.02C140.608 17.06 140.528 17.12 140.448 17.2C140.408 17.28 140.368 17.42 140.328 17.62C140.288 17.78 140.228 17.98 140.148 18.22L139.788 18.46C139.748 18.54 139.668 18.68 139.548 18.88C139.468 19.04 139.348 19.22 139.188 19.42C138.948 19.46 138.748 19.46 138.588 19.42V20.08C138.588 20.12 138.568 20.2 138.528 20.32C138.528 20.4 138.508 20.5 138.468 20.62C138.428 20.66 138.388 20.7 138.348 20.74C138.308 20.78 138.268 20.82 138.228 20.86C138.268 20.9 138.308 21.02 138.348 21.22C138.308 21.34 138.268 21.44 138.228 21.52C138.228 21.6 138.228 21.68 138.228 21.76C138.228 22.08 138.368 22.32 138.648 22.48L138.408 22.96C138.408 23 138.468 23.12 138.588 23.32L138.828 23.74V24.22L138.888 24.88C138.888 25.16 138.888 25.4 138.888 25.6C138.888 25.8 138.908 25.96 138.948 26.08L139.188 26.56C139.348 26.76 139.388 26.9 139.308 26.98C139.508 26.98 139.668 27.28 139.788 27.88C139.988 28.6 140.108 28.98 140.148 29.02V29.32C140.148 29.96 140.248 30.38 140.448 30.58C140.328 31.1 140.288 31.4 140.328 31.48L140.568 31.96C140.608 32.12 140.648 32.28 140.688 32.44C140.728 32.6 140.768 32.78 140.808 32.98C140.888 33.02 141.008 33.16 141.168 33.4C141.208 33.48 141.228 33.64 141.228 33.88L141.108 34.18C141.068 34.26 141.048 34.34 141.048 34.42C141.048 34.5 141.048 34.56 141.048 34.6C140.888 34.76 140.768 34.96 140.688 35.2C140.648 35.44 140.668 35.56 140.748 35.56L140.988 35.38L141.288 35.44L141.468 35.92C141.468 35.96 141.468 36.02 141.468 36.1C141.468 36.18 141.488 36.26 141.528 36.34V36.52C141.968 37.48 142.188 37.92 142.188 37.84V38.32ZM133.368 2.98L133.608 2.86C133.608 2.78 133.588 2.72 133.548 2.68C133.508 2.72 133.448 2.82 133.368 2.98ZM130.908 4.72C131.028 4.76 131.128 4.74 131.208 4.66C131.248 4.62 131.228 4.52 131.148 4.36C131.068 4.4 130.988 4.52 130.908 4.72ZM133.608 8.62C133.608 8.5 133.588 8.42 133.548 8.38C133.508 8.34 133.408 8.36 133.248 8.44C133.248 8.56 133.368 8.62 133.608 8.62ZM140.268 13.9C140.308 13.9 140.268 13.82 140.148 13.66L139.968 13.78C140.008 13.82 140.048 13.84 140.088 13.84C140.168 13.84 140.228 13.86 140.268 13.9ZM140.268 14.86C140.268 14.82 140.268 14.8 140.268 14.8C140.308 14.76 140.328 14.74 140.328 14.74C140.328 14.5 140.208 14.46 139.968 14.62C139.968 14.7 140.068 14.78 140.268 14.86ZM133.608 21.46L133.668 21.34C133.588 21.14 133.448 20.96 133.248 20.8V21.34C133.448 21.46 133.568 21.5 133.608 21.46ZM128.088 28.18C128.568 28.22 128.808 28.24 128.808 28.24L129.228 27.16C128.508 27.4 128.108 27.68 128.028 28C128.068 28.04 128.088 28.1 128.088 28.18ZM138.048 32.86C138.128 32.74 138.188 32.56 138.228 32.32C138.028 32.4 137.908 32.5 137.868 32.62L138.048 32.86Z" fill="url(#paint0_linear_4280_151)"/>
<defs>
<linearGradient id="paint0_linear_4280_151" x1="-1" y1="11" x2="151" y2="11" gradientUnits="userSpaceOnUse">
<stop stop-color="#FF0099"/>
<stop offset="0.945" stop-color="#5D04D9"/>
</linearGradient>
</defs>
</svg>
